<?xml version="1.0" encoding="utf-8"?>
<!-- Generator: Adobe Illustrator 16.0.0, SVG Export Plug-In . SVG Version: 6.00 Build 0)  -->
<!DOCTYPE svg PUBLIC "-//W3C//DTD SVG 1.1//EN" "http://www.w3.org/Graphics/SVG/1.1/DTD/svg11.dtd">
<svg version="1.1" id="Layer_1" xmlns="http://www.w3.org/2000/svg" xmlns:xlink="http://www.w3.org/1999/xlink" x="0px" y="0px"
	 width="274.063px" height="166.65px" viewBox="0 0 274.063 166.65" enable-background="new 0 0 274.063 166.65"
	 xml:space="preserve">
<path fill="#7F7F7F" d="M273.802,12.89l-0.149,0.199c-0.029,0.03-0.051,0.061-0.069,0.08l-0.33,0.351L272.803,14
	c0,0.01-0.01,0.01-0.01,0.021l-0.55,0.569l-0.57,0.61l-0.57,0.68l-0.52,0.721l-0.471,0.659l-0.351,0.54l-0.27,0.521l-0.28,0.53
	c-0.021,0.04-0.04,0.069-0.07,0.109l-0.31,0.471c-0.011,0.01-0.011,0.01-0.021,0.02l-0.3,0.43l-0.29,0.42l-0.3,0.53
	c-0.01,0.021-0.03,0.04-0.04,0.07l-0.43,0.64c-0.011,0.01-0.011,0.03-0.021,0.04l-0.479,0.67l-0.48,0.811
	c-0.01,0.01-0.01,0.01-0.01,0.02l-0.58,0.94v0.01l-0.64,1.01l-0.65,1.05c-0.01,0.011-0.01,0.011-0.01,0.021l-0.66,1.02
	c-0.01,0.011-0.01,0.021-0.021,0.04l-0.649,0.931c-0.01,0.02-0.03,0.04-0.04,0.06l-0.66,0.83c-0.021,0.03-0.05,0.07-0.08,0.1
	l-0.74,0.75c-0.028,0.03-0.06,0.061-0.1,0.091l-0.84,0.67c-0.021,0.02-0.04,0.029-0.062,0.05l-0.858,0.609
	c-0.021,0.011-0.051,0.03-0.08,0.051l-0.851,0.5c-0.021,0.01-0.029,0.029-0.051,0.04l-0.87,0.449c-0.01,0-0.01,0-0.01,0.011
	l-0.85,0.43l-0.062,0.03l-0.83,0.37c-0.05,0.02-0.09,0.04-0.14,0.05l-0.95,0.3c-0.02,0-0.04,0.01-0.06,0.01l-1.142,0.29l-1.239,0.32
	l-1.239,0.32h-0.011l-1.3,0.329c-0.011,0-0.021,0-0.029,0.011l-1.392,0.31l-1.369,0.33l-1.229,0.37l-1.141,0.439l-1.119,0.561
	l-1.171,0.67l-1.181,0.85l-1.188,1.08l-1.12,1.24l-1.03,1.29l-0.84,1.35l-0.71,1.46l-0.63,1.511l-0.61,1.42
	c0,0.02-0.01,0.03-0.01,0.04l-0.63,1.359c-0.011,0-0.011,0.011-0.021,0.021l-0.6,1.229c-0.01,0.03-0.03,0.061-0.05,0.091
	l-0.65,1.079c0,0.011-0.01,0.03-0.021,0.04l-0.63,0.971l-0.511,0.91l-0.369,0.89l-0.25,0.939l-0.141,1.011l-0.07,1.069l-0.029,1.04
	l0.021,1.021l0.021,0.96l0.029,0.87l0.03,0.76l0.03,0.6l0.069,0.391l0.109,0.24l0.21,0.25l0.439,0.35l0.591,0.41l0.609,0.34
	l0.67,0.31c0.011,0,0.011,0,0.011,0l0.68,0.311c0.03,0.02,0.07,0.03,0.101,0.05l0.59,0.34c0,0.01,0.011,0.01,0.021,0.01l0.479,0.301
	l0.461,0.239l0.479,0.24l0.46,0.2l0.5,0.189c0.011,0,0.011,0,0.011,0l0.561,0.211l0.561,0.189l0.569,0.17
	c0.021,0.01,0.05,0.021,0.07,0.021l0.6,0.229c0.04,0.01,0.07,0.03,0.101,0.04l0.609,0.29c0.011,0.01,0.011,0.01,0.021,0.021
	l0.608,0.31c0.021,0.01,0.051,0.02,0.07,0.04l0.59,0.35c0.04,0.021,0.08,0.051,0.11,0.08l0.52,0.4c0.021,0.01,0.03,0.02,0.051,0.03
	l0.449,0.39c0.021,0.02,0.04,0.04,0.07,0.06l0.37,0.37l0.359,0.351l0.38,0.359c0.04,0.03,0.069,0.061,0.101,0.101l0.34,0.41
	c0.05,0.06,0.09,0.119,0.13,0.189l0.271,0.48c0.04,0.069,0.069,0.149,0.09,0.239l0.18,0.601c0.021,0.05,0.03,0.1,0.04,0.149
	l0.11,0.69c0,0.03,0,0.06,0.01,0.1l0.05,0.71v0.051l0.021,0.699v0.74l-0.021,0.66c0,0.01,0,0.01,0,0.02l-0.02,0.62l-0.011,0.63
	l-0.011,0.7v0.03l-0.029,0.71c0,0.05-0.011,0.09-0.011,0.13l-0.1,0.63c0,0.05-0.01,0.09-0.021,0.141l-0.149,0.56
	c-0.021,0.061-0.04,0.12-0.061,0.17l-0.24,0.55c-0.021,0.051-0.039,0.091-0.069,0.141l-0.32,0.54c-0.01,0.01-0.01,0.01-0.01,0.02
	l-0.351,0.55c-0.01,0.011-0.021,0.03-0.029,0.051l-0.391,0.55c-0.021,0.04-0.05,0.069-0.08,0.109l-0.431,0.48l-0.01,0.01l-0.41,0.45
	c-0.029,0.03-0.06,0.06-0.09,0.09l-0.41,0.36c-0.06,0.05-0.13,0.1-0.21,0.14l-0.46,0.26c-0.08,0.04-0.17,0.08-0.26,0.11l-0.58,0.16
	c-0.061,0.02-0.109,0.03-0.17,0.03l-0.66,0.09c-0.029,0.01-0.061,0.01-0.09,0.01l-0.689,0.04h-0.061l-0.689,0.01h-0.03l-0.681-0.02
	h-0.01l-0.649-0.021l-0.641-0.02l-0.609-0.011l-0.601-0.011l-0.59-0.01h-0.59c-0.011,0-0.011,0-0.011,0l-0.59-0.01h-1.801
	l-0.62,0.02l-0.688,0.09l-0.75,0.19l-0.812,0.25c0,0,0,0,0,0.01l-0.779,0.24l-0.8,0.26c-0.011,0.011-0.021,0.011-0.03,0.011
	l-0.829,0.25c-0.021,0.011-0.051,0.021-0.07,0.021l-0.88,0.2c-0.021,0.01-0.05,0.02-0.08,0.02l-0.96,0.15l-1.11,0.18l-1.108,0.19
	l-1.07,0.229l-1.01,0.312l-0.94,0.318l-0.85,0.4l-0.811,0.51l-0.801,0.7l-0.85,0.86l-0.86,0.979l-0.91,1.05
	c-0.01,0.011-0.01,0.021-0.02,0.03l-0.94,1.04l-0.84,0.93l-0.689,0.801l-0.479,0.649l-0.28,0.521l-0.148,0.51l-0.102,0.62
	l-0.02,0.88l0.02,1.03l0.12,1.148l0.16,1.17l0.17,1.102l0.21,1.1l0.221,1.08l0.189,0.95l0.22,0.81l0.21,0.761
	c0,0.021,0.011,0.039,0.011,0.051l0.181,0.77c0.01,0.03,0.01,0.062,0.02,0.08l0.12,0.78c0,0.02,0.011,0.05,0.011,0.069l0.08,0.811
	v0.06l0.039,0.852c0,0.01,0.011,0.029,0.011,0.04L213,112.51c0,0.011,0,0.011,0,0.021v2.53l-0.011,1.528l-0.011,1.58v0.011
	l-0.029,1.5c0,0.029,0,0.051-0.01,0.069l-0.109,1.45c0,0.04-0.011,0.08-0.011,0.11l-0.239,1.39c-0.011,0.04-0.021,0.08-0.03,0.12
	l-0.351,1.24c0,0.028-0.01,0.05-0.021,0.08l-0.38,1.068c0,0.021-0.01,0.04-0.021,0.07l-0.409,0.979
	c-0.011,0.021-0.021,0.039-0.04,0.061l-0.44,0.899l-0.42,0.869v0.012l-0.42,0.85c0,0,0,0,0,0.01l-0.42,0.84l-0.38,0.921l-0.41,1.109
	c0,0.01,0,0.021-0.01,0.03l-0.511,1.31l-0.529,1.38c-0.011,0.03-0.021,0.052-0.03,0.08l-0.609,1.32
	c-0.011,0.021-0.029,0.05-0.04,0.07l-0.681,1.26c-0.021,0.02-0.029,0.05-0.05,0.07l-0.771,1.188c-0.011,0.021-0.029,0.04-0.04,0.062
	l-0.801,1.1c-0.01,0.01-0.02,0.021-0.02,0.021l-0.79,1.021l-0.04,0.04l-0.729,0.85c0,0.012,0,0.012-0.011,0.012l-0.609,0.698
	c-0.011,0.012-0.021,0.03-0.029,0.04l-0.53,0.552l-0.51,0.52c-0.011,0.021-0.03,0.03-0.051,0.05l-0.51,0.471
	c-0.011,0.011-0.021,0.021-0.029,0.029l-0.53,0.44l-0.55,0.479l-0.69,0.591c0,0.011-0.01,0.011-0.01,0.021l-0.91,0.76
	c-0.01,0-0.01,0.01-0.01,0.01l-1.11,0.9c-0.01,0.021-0.029,0.03-0.05,0.04l-1.32,0.979c0,0-0.01,0.011-0.02,0.011l-1.55,1.09
	l-1.642,1.189l-1.619,1.229l-1.62,1.25l-1.569,1.26c-0.011,0-0.011,0-0.011,0l-1.579,1.25c-0.011,0.011-0.021,0.011-0.03,0.021
	l-1.63,1.22c-0.021,0.021-0.04,0.03-0.07,0.05l-1.739,1.13c-0.011,0-0.021,0.012-0.029,0.021l-1.75,1.06
	c-0.011,0.011-0.03,0.021-0.051,0.03l-1.75,0.96c-0.029,0.01-0.061,0.03-0.091,0.04l-1.76,0.77c-0.029,0.021-0.061,0.03-0.09,0.04
	l-1.8,0.631c-0.021,0.011-0.04,0.021-0.07,0.021l-1.96,0.56c-0.01,0-0.021,0.012-0.03,0.012l-2.069,0.52c0,0.01-0.01,0.01-0.01,0.01
	l-2.131,0.512c-0.01,0-0.02,0.01-0.029,0.01l-2.029,0.42c-0.021,0.01-0.03,0.01-0.051,0.01l-1.859,0.32
	c-0.021,0.01-0.04,0.01-0.061,0.01l-1.75,0.21h-0.061l-1.72,0.12h-0.04l-1.811,0.05c-0.011,0-0.011,0-0.021,0l-1.931,0.012
	c-0.01,0-0.01,0-0.01,0l-1.99-0.012h-0.01l-1.99-0.02l-1.971-0.021l-2.02-0.02l-2.12-0.01l-2.311-0.012l-2.521-0.01h-28.311
	l-2.239,0.021l-2.471,0.108l-2.819,0.23l-3.09,0.358l-3.261,0.44c0,0,0,0-0.01,0l-3.29,0.439c-0.01,0-0.02,0-0.03,0.011l-3.37,0.35
	h-0.039l-3.341,0.25h-0.029l-3.11,0.16c-0.01,0-0.01,0-0.02,0l-2.75,0.09c-0.011,0-0.011,0-0.021,0l-2.34,0.03
	c-0.01,0-0.01,0-0.021,0h-2c-0.01,0-0.01,0-0.02,0l-1.71-0.01l-1.42-0.021c0,0,0,0-0.01,0l-1.29-0.02l-1.261-0.03h-0.08l-1.39-0.13
	c-0.03,0-0.06,0-0.08-0.011l-1.57-0.239c-0.02,0-0.039-0.011-0.05-0.011l-1.859-0.359c-0.011-0.01-0.021-0.01-0.03-0.01l-2.14-0.472
	l-2.49-0.54l-2.76-0.6c-0.011-0.01-0.021-0.01-0.03-0.01l-2.94-0.721c-0.01-0.011-0.029-0.011-0.04-0.021l-3.05-0.88
	c-0.02,0-0.04-0.01-0.06-0.021l-3.11-1.1c-0.02,0-0.04-0.01-0.06-0.021l-3.2-1.341l-0.061-0.028l-3.319-1.631
	c-0.021-0.011-0.03-0.021-0.05-0.029l-3.431-1.88c-0.01-0.011-0.01-0.011-0.02-0.021l-3.5-2.01c0-0.01,0-0.01-0.011-0.01l-3.43-2.03
	l-3.25-1.88l-2.97-1.641l-2.561-1.381l-2.119-1.06l-1.73-0.82c-0.01,0-0.02,0-0.02-0.01l-1.381-0.67
	c-0.029-0.021-0.06-0.04-0.09-0.061l-1.069-0.649c-0.03-0.021-0.051-0.04-0.08-0.05l-0.91-0.66c-0.01-0.011-0.03-0.03-0.05-0.04
	l-0.811-0.66c-0.01-0.01-0.02-0.021-0.03-0.03l-0.779-0.67l-0.9-0.64l-0.99-0.7c0-0.01-0.01-0.01-0.02-0.021l-0.94-0.71
	c-0.01-0.011-0.02-0.011-0.029-0.021l-0.841-0.67l-0.75-0.55l-0.75-0.511c-0.01-0.011-0.02-0.011-0.029-0.021l-0.67-0.479
	l-0.59-0.391l-0.631-0.38l-0.659-0.38l-0.761-0.38l-0.97-0.45l-1.03-0.47c-0.029-0.021-0.05-0.03-0.08-0.04l-1-0.562
	c-0.029-0.02-0.05-0.029-0.069-0.039l-0.971-0.631c-0.029-0.01-0.05-0.029-0.079-0.05l-0.841-0.64c-0.01,0-0.02-0.011-0.02-0.011
	l-0.72-0.569c-0.011-0.011-0.021-0.021-0.03-0.03l-0.62-0.521c-0.03-0.029-0.06-0.05-0.09-0.08l-0.49-0.51
	c-0.03-0.029-0.05-0.061-0.08-0.08l-0.42-0.529c-0.03-0.04-0.06-0.08-0.09-0.12l-0.33-0.55c-0.03-0.051-0.06-0.102-0.08-0.15
	l-0.24-0.561l-0.22-0.489l-0.25-0.44l-0.27-0.46c-0.021-0.029-0.04-0.069-0.061-0.1l-0.16-0.351
	c-0.069-0.149-0.109-0.301-0.109-0.46c-0.011-0.16,0.01-0.311,0.069-0.46c0.051-0.149,0.13-0.29,0.24-0.399
	c0.11-0.12,0.23-0.21,0.38-0.28c0.141-0.069,0.29-0.1,0.45-0.109c0.16-0.011,0.32,0.011,0.47,0.069c0.15,0.05,0.28,0.13,0.4,0.24
	c0.12,0.109,0.21,0.229,0.28,0.38l0.13,0.3l0.25,0.41c0,0,0,0.01,0.01,0.01l0.29,0.5l0.06,0.12l0.24,0.561
	c0,0.011,0.01,0.011,0.01,0.011l0.2,0.479l0.25,0.399l0.34,0.42l0.42,0.431l0.561,0.479l0.689,0.54l0.801,0.609l0.899,0.58
	l0.931,0.51l0.989,0.461c0,0,0,0,0,0.01l0.98,0.45c0.01,0,0.02,0.01,0.03,0.01l0.8,0.39c0.029,0.021,0.05,0.03,0.08,0.051
	l0.699,0.399c0.011,0.011,0.011,0.011,0.021,0.011l0.66,0.399c0.02,0.01,0.04,0.021,0.05,0.029l0.63,0.431
	c0.01,0,0.021,0.01,0.03,0.021l0.67,0.471l0.76,0.52c0.021,0.011,0.03,0.021,0.04,0.03l0.8,0.58c0.011,0.01,0.021,0.021,0.03,0.029
	l0.85,0.671l0.91,0.688l0.971,0.69l0.949,0.67c0.03,0.029,0.061,0.05,0.09,0.08l0.811,0.689l0.77,0.63l0.841,0.609l0.989,0.61
	l1.311,0.64l1.74,0.82c0.01,0,0.02,0.01,0.029,0.01l2.141,1.08c0.01,0.01,0.02,0.01,0.029,0.021l2.58,1.391c0.01,0,0.01,0,0.01,0
	l2.99,1.649c0.01,0,0.021,0.01,0.021,0.01l3.27,1.899l3.44,2.03l3.479,2.01l3.391,1.86l3.27,1.6l3.13,1.32l3.03,1.08l2.99,0.859
	l2.899,0.71l2.74,0.601l2.49,0.54l2.14,0.47l1.82,0.36l1.51,0.229l1.311,0.12l1.22,0.03l1.28,0.021l1.42,0.021l1.699,0.01h1.99
	l2.33-0.04l2.72-0.08l3.08-0.159l3.32-0.24l3.33-0.351l3.28-0.439l3.27-0.449c0.01,0,0.021,0,0.021,0l3.119-0.36
	c0.011,0,0.03-0.01,0.04-0.01l2.86-0.229h0.05l2.511-0.109h0.05l2.27-0.021c0,0,0,0,0.01,0h13.171l3.17-0.011h9.25l2.72,0.011h2.53
	l2.31,0.01c0,0,0,0,0.011,0l2.119,0.021c0,0,0,0,0.011,0l2.011,0.021l1.979,0.011l1.98,0.029l1.979,0.011l1.909-0.011l1.771-0.051
	l1.66-0.108l1.689-0.2l1.811-0.311l1.979-0.42l2.109-0.511l2.04-0.521l1.91-0.539l1.721-0.61l1.68-0.729l1.681-0.92l1.71-1.04
	l1.689-1.101l1.59-1.189l1.57-1.229l1.58-1.26c0-0.011,0.01-0.011,0.01-0.011l1.63-1.271h0.011l1.641-1.25
	c0.01,0,0.01-0.01,0.02-0.021l1.66-1.189c0,0,0.01,0,0.01-0.01l1.551-1.091l1.279-0.939l1.07-0.88l0.899-0.76l0.681-0.591
	c0.01-0.011,0.01-0.011,0.01-0.011l0.57-0.479l0.51-0.431l0.46-0.431l0.479-0.489l0.511-0.529l0.579-0.671l0.711-0.819l0.76-0.979
	l0.771-1.051l0.729-1.13l0.64-1.17l0.58-1.26l0.521-1.352l0.51-1.31l0.41-1.13c0.01-0.011,0.01-0.03,0.02-0.04l0.4-0.971
	c0.021-0.029,0.029-0.051,0.04-0.08l0.43-0.88l0.42-0.851l0.42-0.87c0,0,0-0.01,0.011-0.01l0.431-0.87l0.38-0.91l0.351-1l0.319-1.14
	l0.221-1.28l0.101-1.359l0.029-1.449l0.011-1.58l0.01-1.521l0.01-1.34v-1.17l-0.02-0.96l-0.04-0.8l-0.07-0.75l-0.109-0.7l-0.16-0.7
	l-0.21-0.75c0,0-0.011-0.01-0.011-0.02l-0.22-0.851c0-0.021-0.01-0.04-0.01-0.061l-0.2-0.979h-0.01l-0.221-1.08
	c0-0.011,0-0.011,0-0.011l-0.221-1.14c0-0.011,0-0.03-0.01-0.05l-0.17-1.12c0-0.011,0-0.021,0-0.021l-0.17-1.199v-0.051l-0.12-1.21
	c-0.01-0.029-0.01-0.06-0.01-0.09l-0.03-1.109V98.81l0.04-0.98c0-0.05,0-0.09,0.01-0.13l0.11-0.79c0.01-0.06,0.02-0.12,0.04-0.18
	l0.22-0.721c0.021-0.069,0.061-0.149,0.09-0.221l0.391-0.699c0.021-0.04,0.051-0.09,0.08-0.13l0.561-0.75
	c0.01-0.029,0.029-0.051,0.05-0.069l0.729-0.841c0-0.011,0.011-0.021,0.011-0.021l0.85-0.95c0,0,0-0.01,0.011-0.01l0.931-1.021
	l0.899-1.05c0-0.011,0.011-0.011,0.011-0.021l0.89-1c0.01-0.021,0.03-0.04,0.04-0.051l0.91-0.92c0.02-0.021,0.04-0.04,0.06-0.061
	l0.91-0.79c0.05-0.04,0.101-0.08,0.15-0.109l0.949-0.601c0.04-0.021,0.08-0.05,0.12-0.069l0.979-0.46
	c0.04-0.021,0.08-0.04,0.13-0.051l1.03-0.359c0.01,0,0.029,0,0.04-0.01l1.079-0.32c0.021-0.01,0.051-0.021,0.091-0.029l1.13-0.25
	c0.021,0,0.04,0,0.061-0.011l1.141-0.189c0.01,0,0.01,0,0.01,0l1.12-0.18l0.92-0.15l0.8-0.18l0.761-0.229l0.8-0.271
	c0.011,0,0.021-0.011,0.029-0.011l0.79-0.239l0.83-0.261c0.021-0.01,0.04-0.01,0.061-0.02l0.851-0.22
	c0.05-0.011,0.101-0.021,0.149-0.021l0.819-0.109c0.04-0.011,0.08-0.011,0.12-0.011l0.71-0.02h3.04c0,0,0.011,0,0.021,0l0.6,0.01
	l0.61,0.01c0,0,0.01,0,0.02,0l0.61,0.021l0.64,0.02l0.641,0.021l0.66,0.01h0.641l0.62-0.04l0.528-0.07l0.36-0.1l0.24-0.13l0.26-0.23
	l0.351-0.38l0.369-0.43l0.33-0.46l0.32-0.521l0.279-0.46l0.171-0.39l0.108-0.41l0.07-0.51l0.03-0.63l0.01-0.681
	c0-0.01,0-0.01,0-0.01l0.01-0.64c0-0.01,0-0.01,0-0.01l0.021-0.631l0.01-0.649l0.01-0.65l-0.02-0.66l-0.051-0.63l-0.08-0.56
	l-0.119-0.4l-0.15-0.26l-0.22-0.27l-0.33-0.311l-0.37-0.35c-0.01-0.011-0.01-0.011-0.021-0.021l-0.351-0.35l-0.399-0.34l-0.439-0.34
	l-0.49-0.29l-0.56-0.29l-0.54-0.261l-0.521-0.189l-0.55-0.17c-0.01,0-0.029-0.011-0.04-0.011l-0.59-0.199
	c-0.01-0.011-0.021-0.011-0.021-0.011l-0.569-0.21l-0.551-0.199c-0.021-0.011-0.05-0.021-0.079-0.03l-0.53-0.23
	c-0.021-0.01-0.04-0.02-0.061-0.029l-0.5-0.261c-0.011,0-0.011-0.01-0.021-0.01l-0.5-0.26c-0.021-0.01-0.04-0.021-0.069-0.04
	l-0.5-0.31l-0.521-0.301l-0.63-0.279l-0.71-0.33c-0.03-0.011-0.062-0.021-0.091-0.04l-0.721-0.4c-0.029-0.02-0.06-0.04-0.1-0.06
	l-0.67-0.471c-0.021-0.01-0.04-0.029-0.07-0.05l-0.561-0.45c-0.061-0.05-0.109-0.1-0.159-0.159l-0.391-0.46
	c-0.061-0.08-0.12-0.171-0.16-0.261l-0.25-0.52c-0.04-0.09-0.069-0.19-0.09-0.29l-0.12-0.62c-0.01-0.06-0.01-0.11-0.021-0.16
	l-0.04-0.7c0-0.01,0-0.01,0-0.02l-0.021-0.771l-0.029-0.87l-0.03-0.979c0-0.01,0-0.01,0-0.021l-0.01-1.05v-0.04l0.021-1.09
	c0-0.02,0-0.04,0.011-0.06l0.069-1.141c0-0.029,0.01-0.06,0.01-0.09l0.171-1.12c0-0.05,0.01-0.09,0.02-0.13l0.28-1.08
	c0.021-0.05,0.029-0.109,0.05-0.16l0.431-1.029c0.021-0.05,0.04-0.09,0.069-0.141l0.57-1c0.01-0.02,0.02-0.04,0.029-0.069
	l0.641-0.98l0.609-1.02l0.58-1.181l0.619-1.319l0.591-1.41l0.649-1.53c0-0.02,0.01-0.04,0.021-0.06l0.761-1.551
	c0.02-0.039,0.04-0.069,0.06-0.109l0.91-1.46c0.03-0.04,0.05-0.08,0.08-0.11l1.09-1.38c0.021-0.02,0.04-0.04,0.061-0.06l1.181-1.311
	c0.029-0.02,0.05-0.05,0.08-0.08l1.279-1.16c0.029-0.029,0.069-0.06,0.109-0.09l1.28-0.92c0.04-0.03,0.069-0.05,0.109-0.07
	l1.25-0.72l0.061-0.03l1.2-0.609c0.04-0.01,0.069-0.03,0.109-0.04l1.229-0.48c0.029-0.01,0.061-0.02,0.09-0.029l1.311-0.391
	c0.029-0.01,0.051-0.02,0.069-0.02l1.41-0.34c0.01,0,0.01,0,0.021,0l1.38-0.311l1.28-0.33l1.239-0.319l1.25-0.32l1.11-0.28
	l0.859-0.26l0.729-0.33l0.819-0.42l0.83-0.44l0.779-0.46l0.801-0.569l0.75-0.601l0.641-0.649l0.58-0.75l0.619-0.891l0.641-0.989
	l0.649-1.051l0.011-0.01l0.63-1l0.569-0.93l0.5-0.851c0.021-0.029,0.04-0.06,0.061-0.08l0.49-0.699l0.39-0.59l0.301-0.54
	c0.021-0.03,0.04-0.07,0.061-0.101l0.33-0.46l0.3-0.43l0.271-0.41l0.25-0.47v-0.011l0.3-0.56c0.021-0.04,0.04-0.07,0.061-0.1
	l0.391-0.601c0.01-0.02,0.021-0.03,0.029-0.05l0.49-0.68l-0.38,0.21c-0.011,0.01-0.021,0.02-0.04,0.02l-1.801,0.92l-2.26,1.141
	c-0.011,0.01-0.021,0.01-0.03,0.02l-2.75,1.271c-0.01,0.01-0.029,0.02-0.05,0.02l-3.21,1.3c-0.021,0.011-0.04,0.021-0.061,0.021
	l-3.63,1.27c-0.03,0.01-0.061,0.021-0.091,0.021l-3.939,1.06c-0.029,0.01-0.05,0.021-0.08,0.021l-4.159,0.81
	c-0.03,0-0.061,0.01-0.091,0.01l-4.239,0.5c-0.021,0-0.051,0.011-0.069,0.011l-4.19,0.26h-0.04l-4.01,0.12h-3.641l-3.05-0.04
	c0,0-0.011,0-0.021,0l-2.66-0.07h-0.04l-2.26-0.14h-0.04l-1.99-0.19h-0.05l-1.811-0.25c-0.01,0-0.021,0-0.029-0.01l-1.67-0.271
	c-0.011,0-0.021,0-0.021,0l-1.489-0.279c-0.021,0-0.029-0.011-0.05-0.011l-1.381-0.31c-0.021-0.01-0.029-0.01-0.05-0.02l-1.33-0.36
	c-0.021-0.01-0.05-0.01-0.08-0.021l-1.33-0.47c-0.029-0.01-0.06-0.02-0.09-0.03l-1.22-0.54c-0.021-0.01-0.04-0.02-0.051-0.029
	l-1.101-0.55c-0.029-0.011-0.061-0.03-0.08-0.04l-0.909-0.561c-0.061-0.03-0.109-0.07-0.16-0.11l-0.67-0.569
	c-0.05-0.04-0.09-0.08-0.12-0.12l-0.529-0.59c0,0,0-0.01-0.011-0.01l-0.439-0.521c-0.021-0.02-0.04-0.04-0.05-0.06l-0.391-0.511
	c-0.029-0.04-0.05-0.08-0.08-0.12l-0.319-0.56c-0.021-0.03-0.04-0.06-0.05-0.09l-0.32-0.68c-0.01-0.021-0.021-0.051-0.029-0.07
	l-0.351-0.89c-0.011-0.03-0.021-0.051-0.03-0.08l-0.369-1.17c0-0.011,0-0.021,0-0.021l-0.41-1.41c0-0.01-0.011-0.01-0.011-0.02
	l-0.42-1.561l-0.46-1.6l-0.409-1.48l-0.36-1.149l-0.329-0.8l-0.36-0.681l-0.33-0.529l-0.319-0.37l-0.391-0.36l-0.38-0.29l-0.41-0.17
	l-0.659-0.19c0,0,0,0-0.011,0L197.123,3l-0.74-0.21l-0.689-0.16l-0.699-0.149l-0.69-0.08l-0.67,0.02l-0.58,0.08l-0.35,0.12
	l-0.261,0.19l-0.341,0.38L191.664,3.8l-0.54,0.771c0,0,0,0.01-0.011,0.01l-0.631,0.88l-0.68,0.98l-0.71,1.109l-0.74,1.311
	l-0.76,1.59l-0.78,1.94l-0.869,2.199c0,0.011,0,0.011,0,0.021l-0.961,2.34v0.01l-1,2.41l-1.01,2.5v0.01l-1.05,2.49
	c0,0.021-0.01,0.04-0.021,0.061l-1.159,2.449c-0.021,0.021-0.03,0.051-0.051,0.08l-1.391,2.45c-0.021,0.021-0.04,0.05-0.06,0.08
	l-1.61,2.36c-0.01,0.02-0.021,0.029-0.03,0.05l-1.739,2.31c-0.011,0.01-0.021,0.021-0.021,0.03l-1.82,2.29l-1.869,2.4l-1.841,2.51
	l-1.79,2.66l-1.77,2.71l-1.66,2.68l-1.6,2.69l-1.562,2.63c0,0.01-0.01,0.01-0.01,0.01l-1.561,2.63h-0.011l-1.608,2.69l-1.642,2.77
	l-1.72,3.021l-1.891,3.42l-0.011,0.01l-2.18,3.81c-0.01,0-0.01,0.011-0.01,0.011l-2.49,4.199c-0.01,0.011-0.021,0.021-0.021,0.03
	l-2.84,4.47c-0.011,0.011-0.021,0.03-0.029,0.04l-3.221,4.65c-0.011,0.02-0.021,0.04-0.04,0.05l-3.62,4.65
	c-0.021,0.02-0.029,0.04-0.051,0.06l-3.919,4.37c-0.02,0.021-0.04,0.04-0.05,0.05l-2.06,2.021c-0.011,0.02-0.03,0.028-0.04,0.05
	l-2.131,1.87c-0.01,0.01-0.029,0.03-0.05,0.05l-2.18,1.7c-0.021,0.02-0.04,0.03-0.061,0.05l-2.229,1.53
	c-0.021,0.01-0.05,0.028-0.07,0.04l-2.25,1.34c-0.02,0.01-0.04,0.02-0.069,0.04l-2.24,1.14c-0.021,0.01-0.04,0.021-0.061,0.03
	l-2.199,0.95l-0.061,0.028l-2.13,0.79c-0.02,0.012-0.04,0.012-0.07,0.021l-3.97,1.22c-0.03,0-0.05,0.01-0.08,0.021l-3.51,0.84
	c-0.021,0-0.03,0-0.04,0.01l-3.04,0.61l-2.64,0.528h-0.011l-2.42,0.46c-0.02,0.012-0.04,0.012-0.05,0.012l-2.49,0.37
	c-0.02,0-0.04,0.01-0.069,0.01l-2.721,0.25h-0.06l-3.23,0.16h-0.029l-3.92,0.068h-0.04l-4.48-0.06h-0.03l-4.79-0.16h-0.029
	l-5.01-0.26h-0.03l-4.95-0.392h-0.04l-4.64-0.51c-0.021,0-0.03,0-0.04-0.01l-4.12-0.57c0,0-0.01,0-0.021,0l-3.35-0.54
	c-0.01,0-0.021-0.01-0.03-0.01l-2.59-0.47h-0.01l-1.86-0.36c0,0,0,0-0.01,0l-1.14-0.24c-0.16-0.028-0.301-0.09-0.44-0.18
	c-0.13-0.09-0.24-0.2-0.32-0.33c-0.09-0.14-0.149-0.28-0.18-0.438c-0.03-0.15-0.03-0.312,0-0.472c0.03-0.148,0.09-0.3,0.18-0.43
	c0.091-0.13,0.2-0.24,0.341-0.33c0.13-0.09,0.27-0.14,0.43-0.17s0.31-0.03,0.47,0l1.141,0.229l1.84,0.359l2.569,0.47l3.33,0.53
	l4.08,0.57l4.62,0.5l4.91,0.39l4.99,0.26l4.77,0.16l4.45,0.05l3.89-0.06l3.181-0.16l2.67-0.24l2.43-0.358l2.39-0.45l2.641-0.54
	l3.01-0.61l3.46-0.818l3.91-1.2l2.06-0.771l2.141-0.92l2.17-1.108l2.18-1.3l2.17-1.48l2.12-1.67l2.07-1.82l2-1.97l3.87-4.31
	l3.579-4.592l3.181-4.6l2.819-4.43l2.479-4.17l2.17-3.801l1.891-3.42c0.011,0,0.011,0,0.011-0.01l1.72-3.03
	c0.01,0,0.01-0.01,0.01-0.01l1.65-2.79c0,0,0-0.01,0.01-0.01l1.61-2.69l1.569-2.62l1.561-2.64l1.609-2.7l0.011-0.01l1.68-2.71
	c0-0.01,0.01-0.01,0.01-0.021l1.78-2.729l0.01-0.01l1.812-2.69c0.01-0.01,0.01-0.03,0.02-0.04l1.87-2.54
	c0.01-0.01,0.021-0.02,0.021-0.029l1.89-2.421c0,0,0,0,0.01,0l1.801-2.29l1.721-2.279l1.568-2.311l1.36-2.37l1.13-2.38l1.03-2.46
	l1-2.489c0-0.011,0-0.011,0.01-0.021l1-2.41l0.95-2.33l0.859-2.21c0.011,0,0.011,0,0.011,0l0.79-1.979
	c0.01-0.021,0.02-0.05,0.029-0.07l0.801-1.66c0.01-0.02,0.02-0.05,0.028-0.069l0.78-1.381c0.01-0.02,0.03-0.05,0.04-0.069l0.74-1.15
	c0.01-0.01,0.01-0.02,0.02-0.03l0.69-1.01c0.01,0,0.02-0.01,0.02-0.02l0.642-0.88l0.529-0.761c0.011-0.01,0.011-0.01,0.011-0.02
	l0.489-0.67c0.021-0.03,0.051-0.07,0.079-0.101L190.74,1.1c0.061-0.061,0.131-0.12,0.2-0.17l0.511-0.36
	c0.09-0.07,0.188-0.12,0.3-0.16l0.62-0.22c0.069-0.021,0.148-0.04,0.22-0.05l0.771-0.11c0.051-0.01,0.101-0.01,0.141-0.01L194.332,0
	c0.06,0,0.12,0,0.17,0.01l0.819,0.091c0.029,0.01,0.061,0.01,0.091,0.02l0.779,0.15c0.011,0.01,0.021,0.01,0.029,0.01l0.75,0.18
	c0.021,0,0.04,0.011,0.061,0.011l0.771,0.229l0.76,0.22l0.73,0.21c0.05,0.011,0.09,0.03,0.14,0.051l0.62,0.26
	c0.08,0.04,0.17,0.09,0.24,0.14l0.54,0.41c0.029,0.02,0.06,0.04,0.09,0.07l0.5,0.449c0.04,0.04,0.08,0.07,0.109,0.12l0.421,0.5
	c0.039,0.04,0.068,0.091,0.1,0.13l0.4,0.641c0.02,0.02,0.028,0.05,0.05,0.08l0.399,0.77c0.021,0.03,0.029,0.061,0.051,0.101
	l0.369,0.899c0.021,0.04,0.029,0.07,0.04,0.101l0.38,1.22c0,0.02,0.011,0.03,0.011,0.04l0.42,1.49l0.45,1.6c0,0,0,0.01,0.01,0.01
	l0.42,1.561l0.4,1.38l0.35,1.12l0.32,0.81l0.279,0.59l0.271,0.46l0.31,0.42l0.421,0.48l0.46,0.52l0.54,0.46l0.779,0.48l1.03,0.51
	l1.149,0.51l1.239,0.431l1.271,0.35l1.33,0.3l1.449,0.271l1.641,0.27l1.77,0.24l1.94,0.19l2.22,0.13l2.641,0.069l3.029,0.04
	l3.57-0.01l3.979-0.109l4.13-0.261l4.171-0.489l4.068-0.79l3.86-1.04l3.569-1.24l3.149-1.271l2.7-1.25l2.229-1.14l1.79-0.9
	l1.271-0.699l0.899-0.591l0.689-0.449c0.03-0.011,0.061-0.03,0.08-0.04l0.561-0.3c0.061-0.04,0.119-0.061,0.181-0.08l0.489-0.17
	c0.061-0.021,0.131-0.04,0.189-0.051l0.49-0.08c0.04-0.01,0.09-0.02,0.14-0.02l0.44-0.021c0.069,0,0.13,0,0.199,0.011l0.229,0.029
	c0.24,0.03,0.45,0.12,0.641,0.28c0.181,0.16,0.311,0.36,0.369,0.59l0.03,0.12C274.123,12.219,274.052,12.57,273.802,12.89z"/>
<path fill="#7F7F7F" d="M191.272,40.856h0.465l0.678,0.021l0.968,0.126l1.271,0.191c0.006,0,0.011,0.001,0.015,0.001l1.36,0.188
	c0.014,0.001,0.024,0.003,0.036,0.005l1.399,0.149c0.009,0.001,0.019,0.002,0.028,0.003l1.604,0.134l1.641,0.22l1.622,0.365
	l1.578,0.512l1.562,0.527c0.01,0.004,0.02,0.008,0.028,0.011l1.441,0.445c0.02,0.006,0.038,0.012,0.058,0.017l1.286,0.329
	c0.024,0.006,0.049,0.012,0.073,0.016l1.113,0.211c0.155,0.03,0.313,0.028,0.469-0.004c0.155-0.033,0.3-0.094,0.432-0.183
	c0.132-0.091,0.241-0.201,0.328-0.334c0.088-0.134,0.146-0.278,0.176-0.436c0.03-0.157,0.028-0.313-0.004-0.469
	c-0.031-0.156-0.093-0.3-0.183-0.433c-0.09-0.132-0.201-0.24-0.335-0.328c-0.133-0.088-0.278-0.146-0.436-0.177l-1.075-0.204
	l-1.221-0.312l-1.396-0.433l-1.555-0.525c-0.005-0.001-0.01-0.003-0.015-0.005l-1.639-0.531c-0.034-0.011-0.07-0.021-0.105-0.028
	l-1.728-0.39c-0.035-0.008-0.07-0.014-0.105-0.019l-1.723-0.23c-0.021-0.002-0.039-0.005-0.061-0.006l-1.618-0.135L196.338,39
	l-1.337-0.185l-1.274-0.191c-0.008-0.001-0.015-0.002-0.021-0.003l-1.037-0.136c-0.04-0.005-0.079-0.008-0.119-0.01l-0.756-0.023
	c-0.014,0-0.024,0-0.037,0h-0.483c-0.159,0-0.313,0.03-0.46,0.091c-0.146,0.062-0.276,0.148-0.39,0.262
	c-0.113,0.112-0.2,0.242-0.261,0.39c-0.062,0.146-0.093,0.301-0.093,0.46c0,0.16,0.031,0.313,0.093,0.46
	c0.061,0.146,0.146,0.277,0.261,0.39c0.112,0.112,0.242,0.199,0.39,0.261C190.961,40.825,191.113,40.856,191.272,40.856
	L191.272,40.856z"/>
<path fill="#7F7F7F" d="M219.433,52.876l-0.398,0.028c-0.058,0.004-0.112,0.012-0.168,0.023l-0.742,0.16
	c-0.01,0.002-0.019,0.004-0.026,0.006l-1.079,0.259c-0.016,0.003-0.03,0.007-0.045,0.012l-1.475,0.413
	c-0.019,0.005-0.036,0.011-0.055,0.017l-1.813,0.602c-0.013,0.004-0.026,0.009-0.04,0.014l-2.122,0.789
	c-0.012,0.004-0.023,0.009-0.035,0.014l-2.413,0.986c-0.008,0.003-0.016,0.006-0.022,0.01l-2.535,1.1c-0.001,0-0.001,0-0.002,0.001
	l-2.497,1.089c-0.008,0.003-0.015,0.006-0.021,0.01l-2.249,1.033c-0.004,0.002-0.008,0.003-0.012,0.005l-1.85,0.873
	c-0.007,0.004-0.016,0.007-0.022,0.011l-1.421,0.708l-1.041,0.516c-0.144,0.071-0.267,0.166-0.372,0.286
	c-0.104,0.12-0.183,0.255-0.232,0.407c-0.052,0.151-0.07,0.306-0.061,0.465c0.011,0.159,0.052,0.311,0.122,0.453
	c0.07,0.144,0.166,0.268,0.286,0.371c0.12,0.105,0.256,0.183,0.406,0.234c0.15,0.051,0.306,0.07,0.465,0.06
	c0.159-0.01,0.31-0.051,0.453-0.122l1.042-0.517c0.001,0,0.001-0.001,0.002-0.001l1.411-0.703l1.832-0.865l2.231-1.024l2.485-1.084
	l2.521-1.094l2.384-0.974l2.084-0.774l1.765-0.585l1.425-0.398l1.044-0.249l0.646-0.14l0.313-0.021
	c0.159-0.011,0.311-0.053,0.452-0.124c0.143-0.071,0.267-0.167,0.371-0.288c0.104-0.12,0.182-0.256,0.232-0.407
	c0.051-0.15,0.069-0.306,0.059-0.465s-0.052-0.31-0.123-0.452c-0.071-0.142-0.167-0.266-0.288-0.371
	c-0.12-0.104-0.256-0.182-0.407-0.231C219.748,52.884,219.592,52.865,219.433,52.876L219.433,52.876z"/>
<path fill="#7F7F7F" d="M229.047,37.128c0,0.159,0.03,0.313,0.091,0.46c0.063,0.147,0.148,0.277,0.261,0.391
	c0.113,0.112,0.243,0.199,0.391,0.261c0.146,0.061,0.301,0.091,0.46,0.091s0.313-0.03,0.46-0.091
	c0.146-0.062,0.276-0.148,0.39-0.261s0.2-0.243,0.261-0.391c0.063-0.146,0.093-0.301,0.093-0.46s-0.03-0.313-0.093-0.46
	c-0.061-0.146-0.146-0.276-0.261-0.39c-0.112-0.113-0.242-0.2-0.39-0.261c-0.148-0.062-0.301-0.092-0.46-0.092
	s-0.313,0.03-0.46,0.092c-0.146,0.061-0.276,0.147-0.391,0.261c-0.111,0.112-0.198,0.243-0.261,0.39
	C229.078,36.816,229.047,36.969,229.047,37.128L229.047,37.128z M229.047,37.128c0,0.159,0.03,0.313,0.091,0.46
	c0.063,0.147,0.148,0.277,0.261,0.391c0.113,0.112,0.243,0.199,0.391,0.261c0.146,0.061,0.301,0.091,0.46,0.091
	s0.313-0.03,0.46-0.091c0.146-0.062,0.276-0.148,0.39-0.261s0.2-0.243,0.261-0.391c0.063-0.146,0.093-0.301,0.093-0.46
	s-0.03-0.313-0.093-0.46c-0.061-0.146-0.146-0.276-0.261-0.39c-0.112-0.113-0.242-0.2-0.39-0.261
	c-0.148-0.062-0.301-0.092-0.46-0.092s-0.313,0.03-0.46,0.092c-0.146,0.061-0.276,0.147-0.391,0.261
	c-0.111,0.112-0.198,0.243-0.261,0.39C229.078,36.816,229.047,36.969,229.047,37.128L229.047,37.128z"/>
<path fill="#7F7F7F" d="M231.165,41.367c0,0.16,0.029,0.313,0.091,0.46c0.062,0.147,0.147,0.277,0.261,0.39
	c0.112,0.112,0.243,0.199,0.39,0.261c0.147,0.061,0.302,0.092,0.461,0.092c0.158,0,0.313-0.031,0.46-0.092
	c0.146-0.062,0.276-0.148,0.39-0.261s0.2-0.242,0.261-0.39c0.063-0.146,0.092-0.3,0.092-0.46c0-0.159-0.029-0.313-0.092-0.459
	c-0.061-0.147-0.146-0.277-0.261-0.39c-0.112-0.113-0.242-0.2-0.39-0.261s-0.302-0.092-0.46-0.092c-0.159,0-0.313,0.031-0.461,0.092
	c-0.146,0.062-0.276,0.147-0.39,0.261c-0.113,0.112-0.199,0.242-0.261,0.39S231.165,41.208,231.165,41.367L231.165,41.367z
	 M231.165,41.367c0,0.16,0.029,0.313,0.091,0.46c0.062,0.147,0.147,0.277,0.261,0.39c0.112,0.112,0.243,0.199,0.39,0.261
	c0.147,0.061,0.302,0.092,0.461,0.092c0.158,0,0.313-0.031,0.46-0.092c0.146-0.062,0.276-0.148,0.39-0.261s0.2-0.242,0.261-0.39
	c0.063-0.146,0.092-0.3,0.092-0.46c0-0.159-0.029-0.313-0.092-0.459c-0.061-0.147-0.146-0.277-0.261-0.39
	c-0.112-0.113-0.242-0.2-0.39-0.261s-0.302-0.092-0.46-0.092c-0.159,0-0.313,0.031-0.461,0.092c-0.146,0.062-0.276,0.147-0.39,0.261
	c-0.113,0.112-0.199,0.242-0.261,0.39S231.165,41.208,231.165,41.367L231.165,41.367z"/>
</svg>
