<?xml version="1.0" encoding="utf-8"?>
<!-- Generator: Adobe Illustrator 16.0.0, SVG Export Plug-In . SVG Version: 6.00 Build 0)  -->
<!DOCTYPE svg PUBLIC "-//W3C//DTD SVG 1.1//EN" "http://www.w3.org/Graphics/SVG/1.1/DTD/svg11.dtd">
<svg version="1.1" id="Layer_1" xmlns="http://www.w3.org/2000/svg" xmlns:xlink="http://www.w3.org/1999/xlink" x="0px" y="0px"
	 width="568.08px" height="194.88px" viewBox="0 0 568.08 194.88" enable-background="new 0 0 568.08 194.88" xml:space="preserve">
<g>
	<path fill="#7F7F7F" d="M311.669,174.275h5.679h7.461h7.789h6.908h5.355h3.518h1.796h0.394c0.159,0,0.313-0.03,0.46-0.091
		c0.146-0.062,0.276-0.147,0.389-0.261c0.113-0.112,0.2-0.242,0.261-0.39c0.061-0.146,0.092-0.3,0.092-0.459
		s-0.031-0.313-0.092-0.459c-0.061-0.147-0.147-0.277-0.261-0.39c-0.112-0.113-0.242-0.199-0.389-0.261
		c-0.147-0.061-0.301-0.091-0.46-0.091h-0.815H347.6h-3.948h-6.392h-10.073h-15.105h-20.765h-26.107h-30.491h-33.113h-33.61H136.26
		h-27.438H87.274l-15.25-0.02l-9.324-0.158l-2.583-0.199l-1.347-0.229l-0.517-0.227c0.088,0.396,0.317,0.677,0.69,0.841l-0.07-0.319
		c-0.186,0.282-0.243,0.589-0.17,0.919l0.18-0.271l0.619-0.531l3.752-2.612l6.621-4.41c0.012-0.009,0.024-0.017,0.036-0.025
		l4.169-3.001c0.011-0.009,0.022-0.017,0.033-0.025l4.647-3.597c0.011-0.009,0.021-0.017,0.032-0.025l5.079-4.216
		c0.009-0.008,0.018-0.016,0.026-0.022l5.468-4.812c0.008-0.008,0.017-0.016,0.025-0.022l12.005-11.176
		c0.002-0.001,0.003-0.003,0.005-0.005l13.554-12.757l7.42-6.737l7.885-6.861l8.34-6.892l8.786-6.823l9.209-6.667l9.641-6.446
		l10.099-6.196l5.211-2.981l5.333-2.9l5.446-2.821l5.558-2.728l5.662-2.639l5.756-2.542l5.84-2.443l5.91-2.332l5.961-2.224
		l6.008-2.098l6.027-1.972l6.027-1.844l12.011-3.306l11.788-2.805l11.415-2.323l10.898-1.884l10.22-1.478l9.401-1.117l8.503-0.809
		l7.556-0.542l6.586-0.331l10.309-0.206c0.157-0.006,0.307-0.042,0.45-0.107c0.143-0.065,0.269-0.155,0.376-0.27
		c0.108-0.114,0.19-0.245,0.247-0.392c0.056-0.146,0.083-0.298,0.08-0.456c-0.004-0.157-0.036-0.308-0.099-0.452
		c-0.063-0.144-0.149-0.271-0.262-0.381s-0.241-0.195-0.387-0.254c-0.146-0.06-0.297-0.089-0.454-0.089l-10.326,0.207
		c-0.013,0-0.024,0-0.037,0.001l-6.616,0.333c-0.009,0-0.018,0.001-0.025,0.002l-7.583,0.544c-0.01,0-0.019,0.001-0.028,0.002
		l-8.53,0.812c-0.009,0.001-0.019,0.002-0.028,0.003l-9.431,1.121c-0.01,0.001-0.02,0.002-0.029,0.004l-10.252,1.482
		c-0.011,0.001-0.021,0.003-0.032,0.005l-10.932,1.89c-0.012,0.002-0.023,0.004-0.035,0.006l-11.452,2.331
		c-0.013,0.002-0.025,0.005-0.039,0.009l-11.827,2.813c-0.014,0.003-0.027,0.007-0.041,0.011l-12.047,3.315
		c-0.011,0.003-0.022,0.006-0.033,0.009l-6.055,1.853c-0.007,0.002-0.015,0.004-0.022,0.007l-6.049,1.979
		c-0.008,0.002-0.015,0.005-0.022,0.007l-6.031,2.106c-0.008,0.002-0.016,0.005-0.024,0.008l-5.984,2.232
		c-0.007,0.002-0.014,0.005-0.021,0.008l-5.933,2.34c-0.008,0.003-0.015,0.006-0.023,0.009l-5.862,2.453
		c-0.007,0.003-0.015,0.006-0.021,0.009l-5.778,2.551c-0.007,0.003-0.015,0.007-0.022,0.011l-5.684,2.649
		c-0.007,0.003-0.015,0.007-0.021,0.01l-5.581,2.739c-0.008,0.004-0.016,0.008-0.023,0.012l-5.468,2.833
		c-0.007,0.004-0.014,0.007-0.021,0.011l-5.355,2.912c-0.008,0.004-0.015,0.008-0.022,0.013l-5.238,2.997
		c-0.011,0.006-0.021,0.013-0.032,0.019l-10.134,6.218c-0.014,0.008-0.026,0.017-0.04,0.025l-9.679,6.472
		c-0.012,0.008-0.024,0.017-0.037,0.025l-9.243,6.692c-0.011,0.008-0.021,0.016-0.032,0.024l-8.816,6.847
		c-0.01,0.007-0.019,0.015-0.029,0.022l-8.366,6.912c-0.008,0.007-0.015,0.014-0.023,0.021l-7.906,6.88
		c-0.007,0.005-0.013,0.011-0.02,0.017l-7.438,6.753c-0.005,0.005-0.011,0.01-0.016,0.015l-13.559,12.763l-11.991,11.161
		l-5.442,4.789l-5.05,4.191l-4.615,3.572l-4.134,2.977l-6.613,4.405c-0.007,0.004-0.014,0.009-0.021,0.014l-3.813,2.654
		c-0.033,0.023-0.065,0.048-0.096,0.074l-0.792,0.68c-0.085,0.073-0.159,0.157-0.22,0.251l-0.272,0.412
		c-0.186,0.282-0.243,0.589-0.17,0.919l0.07,0.319c0.087,0.397,0.317,0.678,0.69,0.841l0.652,0.286
		c0.09,0.04,0.184,0.067,0.282,0.084l1.547,0.263c0.036,0.006,0.072,0.011,0.108,0.014l2.673,0.206
		c0.023,0.002,0.047,0.003,0.072,0.004l9.37,0.159c0.006,0,0.013,0,0.019,0l15.26,0.019c0,0,0.001,0,0.001,0h21.549h27.438h31.734
		h33.61h33.113h30.491h26.107h20.765h15.105h10.073h6.392h3.948h2.153h0.815c0.159,0,0.313-0.03,0.46-0.091
		c0.146-0.062,0.276-0.147,0.389-0.261c0.113-0.112,0.2-0.242,0.261-0.39c0.061-0.146,0.092-0.3,0.092-0.459
		s-0.031-0.313-0.092-0.459c-0.061-0.147-0.147-0.277-0.261-0.39c-0.112-0.113-0.242-0.199-0.389-0.261
		c-0.147-0.061-0.301-0.091-0.46-0.091h-0.394h-1.796h-3.518h-5.355h-6.908h-7.789h-7.461h-5.679c-0.159,0-0.313,0.03-0.46,0.091
		c-0.146,0.062-0.276,0.147-0.39,0.261c-0.112,0.112-0.199,0.242-0.26,0.39c-0.061,0.146-0.092,0.3-0.092,0.459
		s0.031,0.313,0.092,0.459c0.061,0.147,0.147,0.277,0.26,0.39c0.113,0.113,0.243,0.199,0.39,0.261
		C311.356,174.245,311.51,174.275,311.669,174.275"/>
	<path fill="#7F7F7F" d="M349.642,32.596l0.094-0.086l0.356-0.163l1.027-0.327l1.814-0.495l2.615-0.623l3.401-0.771l4.177-0.897
		l4.827-0.965l0,0l5.424-1.087l5.911-1.165l6.242-1.122l6.348-0.999l6.197-0.782l6.013-0.536l5.734-0.331l5.364-0.168l5.034-0.056
		l4.644,0.023l4.256,0.144l3.913,0.283l3.466,0.401l2.878,0.485l2.269,0.545l1.719,0.574l1.244,0.63l0.897,0.651l0.677,0.648
		l0.495,0.602l0.325,0.587l0.202,0.599l0.078,0.664l-0.12,0.763l-0.472,0.976l-1.066,1.27l-1.899,1.571l-2.804,1.79l-3.663,1.984
		l-4.221,2.145c-0.001,0-0.002,0.001-0.003,0.001l-4.474,2.289c-0.012,0.006-0.023,0.013-0.035,0.02l-4.428,2.457
		c-0.023,0.013-0.046,0.027-0.069,0.042l-4.075,2.635c-0.023,0.015-0.046,0.031-0.068,0.048l-1.838,1.379
		c-0.019,0.014-0.036,0.027-0.054,0.042l-1.692,1.426c-0.019,0.016-0.037,0.032-0.055,0.049l-1.552,1.477
		c-0.017,0.016-0.033,0.033-0.049,0.049l-1.431,1.529c-0.02,0.021-0.039,0.043-0.057,0.066l-2.594,3.208
		c-0.018,0.021-0.034,0.043-0.05,0.066l-2.363,3.376c-0.009,0.012-0.017,0.023-0.024,0.035l-2.269,3.497l-2.326,3.564l-2.47,3.584
		l-2.724,3.564l-3.059,3.479l-3.323,3.36l-3.435,3.248l-3.374,3.154c-0.007,0.006-0.014,0.013-0.021,0.019l-3.132,3.067
		c-0.014,0.013-0.027,0.027-0.04,0.041l-2.823,3.039c-0.021,0.023-0.042,0.047-0.062,0.071l-2.438,3.077
		c-0.024,0.031-0.047,0.063-0.068,0.096l-2.012,3.123c-0.024,0.038-0.047,0.078-0.067,0.119l-1.557,3.155
		c-0.021,0.041-0.038,0.082-0.053,0.124l-1.088,3.016c-0.016,0.043-0.028,0.087-0.039,0.131l-0.666,2.818
		c-0.01,0.041-0.018,0.083-0.022,0.125l-0.338,2.649c-0.004,0.031-0.007,0.063-0.008,0.094l-0.122,2.542
		c-0.002,0.023-0.002,0.048-0.002,0.071l0.028,2.514c0,0.024,0.002,0.05,0.003,0.074l0.179,2.429
		c0.002,0.024,0.004,0.048,0.008,0.071l0.313,2.35c0.002,0.011,0.003,0.021,0.005,0.03l0.356,2.232
		c0.001,0.012,0.003,0.022,0.005,0.033l0.39,2.068c0.001,0.007,0.003,0.013,0.004,0.02l0.375,1.819
		c0.002,0.009,0.004,0.017,0.006,0.024l0.384,1.692c0.005,0.021,0.011,0.042,0.017,0.063l0.427,1.496
		c0.01,0.034,0.021,0.068,0.034,0.102l0.479,1.243c0.018,0.047,0.038,0.092,0.062,0.136l0.53,0.989
		c0.029,0.056,0.063,0.108,0.102,0.158l0.544,0.718c0.097,0.127,0.213,0.23,0.351,0.311s0.285,0.131,0.442,0.152
		s0.313,0.012,0.467-0.028c0.154-0.04,0.295-0.108,0.421-0.205c0.127-0.096,0.23-0.213,0.311-0.35
		c0.081-0.138,0.132-0.285,0.153-0.442c0.022-0.157,0.013-0.313-0.027-0.467c-0.04-0.154-0.108-0.295-0.204-0.422l-0.486-0.642
		l-0.45-0.841l-0.433-1.123l-0.403-1.412l-0.374-1.649l-0.371-1.798l-0.384-2.042l-0.352-2.2l-0.308-2.299l-0.173-2.356l-0.027-2.44
		l0.118-2.459l0.323-2.54l0.636-2.69l1.042-2.887l1.497-3.034l1.942-3.017l2.373-2.994l2.771-2.983l3.103-3.038l3.366-3.146
		c0.002-0.001,0.004-0.003,0.006-0.005l3.451-3.264c0.01-0.009,0.02-0.019,0.028-0.028l3.362-3.4
		c0.017-0.017,0.033-0.034,0.048-0.051l3.109-3.536c0.019-0.021,0.036-0.042,0.053-0.064l2.767-3.62
		c0.012-0.016,0.023-0.031,0.035-0.047l2.494-3.621c0.006-0.008,0.012-0.017,0.018-0.025l2.335-3.578
		c0.001-0.001,0.001-0.002,0.002-0.003l2.258-3.48l2.328-3.325l2.54-3.142l1.377-1.471l1.5-1.428l1.64-1.38l1.777-1.333l4.007-2.591
		l4.373-2.428l4.455-2.278l4.233-2.152c0.009-0.005,0.019-0.01,0.027-0.015l3.714-2.012c0.025-0.014,0.05-0.028,0.074-0.044
		l2.903-1.852c0.041-0.027,0.081-0.056,0.119-0.087l2.04-1.688c0.056-0.046,0.107-0.097,0.153-0.152l1.233-1.468
		c0.064-0.077,0.119-0.16,0.162-0.25l0.614-1.271c0.052-0.106,0.087-0.218,0.105-0.335l0.173-1.102
		c0.018-0.109,0.02-0.218,0.007-0.328l-0.113-0.952c-0.01-0.083-0.027-0.164-0.054-0.243l-0.277-0.82
		c-0.022-0.069-0.052-0.135-0.087-0.199l-0.432-0.778c-0.036-0.064-0.076-0.125-0.123-0.181l-0.609-0.741
		c-0.03-0.037-0.063-0.071-0.097-0.104l-0.788-0.755c-0.039-0.038-0.081-0.073-0.126-0.105l-1.041-0.755
		c-0.051-0.038-0.105-0.071-0.162-0.1l-1.407-0.713c-0.052-0.026-0.106-0.049-0.162-0.067l-1.853-0.619
		c-0.032-0.011-0.065-0.021-0.099-0.028l-2.359-0.567c-0.026-0.007-0.054-0.012-0.081-0.017l-2.95-0.497
		c-0.021-0.003-0.04-0.006-0.061-0.009l-3.522-0.408c-0.017-0.002-0.034-0.003-0.052-0.004l-3.963-0.286
		c-0.015-0.001-0.03-0.002-0.045-0.003l-4.296-0.146c-0.012,0-0.023,0-0.035,0l-4.671-0.023c-0.006,0-0.013,0-0.019,0l-5.056,0.056
		c-0.008,0-0.017,0-0.024,0l-5.393,0.169c-0.011,0-0.021,0.001-0.032,0.001l-5.769,0.333c-0.012,0-0.024,0.001-0.037,0.003
		l-6.054,0.539c-0.015,0.001-0.029,0.003-0.044,0.005l-6.237,0.788c-0.012,0.001-0.024,0.003-0.036,0.005l-6.378,1.003
		c-0.009,0.001-0.017,0.003-0.025,0.004l-6.266,1.125c-0.007,0.001-0.013,0.002-0.02,0.004l-5.923,1.167
		c-0.001,0-0.003,0-0.004,0.001l-5.426,1.088l-4.835,0.966c-0.005,0.001-0.011,0.002-0.017,0.003l-4.192,0.9
		c-0.004,0.001-0.009,0.002-0.013,0.003l-3.414,0.774c-0.005,0.001-0.009,0.002-0.013,0.003l-2.641,0.628
		c-0.013,0.003-0.025,0.006-0.038,0.01l-1.856,0.506c-0.017,0.004-0.032,0.009-0.048,0.014l-1.121,0.356
		c-0.046,0.015-0.091,0.032-0.135,0.052l-0.596,0.272c-0.115,0.053-0.221,0.123-0.313,0.209l-0.235,0.215
		c-0.114,0.108-0.205,0.234-0.271,0.378c-0.064,0.144-0.101,0.295-0.106,0.453c-0.005,0.158,0.02,0.311,0.074,0.459
		c0.055,0.148,0.136,0.28,0.242,0.396c0.107,0.117,0.232,0.208,0.375,0.275c0.144,0.067,0.294,0.104,0.452,0.112
		c0.157,0.007,0.311-0.016,0.46-0.068C349.391,32.781,349.523,32.702,349.642,32.596"/>
	<path fill="#7F7F7F" d="M390.195,51.048h-0.089c-0.159,0-0.313,0.03-0.46,0.091c-0.146,0.061-0.276,0.148-0.389,0.26
		c-0.113,0.113-0.2,0.243-0.261,0.39s-0.092,0.3-0.091,0.459c-0.001,0.159,0.03,0.312,0.091,0.459
		c0.061,0.147,0.147,0.277,0.261,0.389c0.112,0.113,0.242,0.2,0.389,0.26c0.147,0.061,0.301,0.092,0.46,0.092h0.089
		c0.159,0,0.313-0.031,0.459-0.092c0.147-0.061,0.277-0.147,0.39-0.26c0.113-0.112,0.199-0.242,0.261-0.389
		c0.061-0.147,0.091-0.3,0.091-0.459s-0.03-0.313-0.091-0.459c-0.062-0.147-0.147-0.277-0.261-0.39
		c-0.112-0.112-0.242-0.199-0.39-0.26C390.508,51.078,390.354,51.048,390.195,51.048"/>
	<path fill="#7F7F7F" d="M381.56,141.442l0.348,0.085l0.495,0.138l0.754,0.226l1.047,0.347l1.354,0.517c0.001,0,0.002,0,0.003,0.001
		l1.697,0.642c0.01,0.004,0.02,0.008,0.03,0.012l2.044,0.712c0.002,0.001,0.004,0.002,0.006,0.003l2.313,0.792
		c0.007,0.003,0.014,0.005,0.021,0.008l2.532,0.815c0.006,0.002,0.012,0.004,0.018,0.006l2.617,0.797
		c0.006,0.002,0.012,0.004,0.018,0.006l2.537,0.731c0.011,0.003,0.022,0.006,0.033,0.009l2.373,0.609
		c0.006,0.002,0.012,0.003,0.017,0.004l2.19,0.529l2.031,0.506l1.956,0.487c0.014,0.004,0.027,0.007,0.041,0.01l2.035,0.432
		c0.009,0.001,0.017,0.003,0.025,0.005l2.194,0.417c0.005,0.001,0.01,0.002,0.015,0.003l2.457,0.437c0.001,0,0.002,0,0.004,0
		l2.738,0.479c0.004,0.001,0.009,0.002,0.013,0.002l3.071,0.502c0.012,0.002,0.023,0.004,0.035,0.006l3.344,0.445
		c0.016,0.002,0.03,0.004,0.046,0.005l3.563,0.338c0.016,0.001,0.03,0.002,0.046,0.003l3.827,0.216
		c0.02,0.001,0.039,0.002,0.059,0.002l4.028,0.028c0.02,0,0.039,0,0.059-0.001l4.07-0.169c0.018-0.001,0.035-0.002,0.053-0.003
		l3.996-0.343c0.014-0.001,0.027-0.003,0.041-0.004l3.803-0.46c0.005-0.001,0.009-0.001,0.013-0.002l3.56-0.469
		c0.006-0.001,0.013-0.002,0.019-0.002l3.25-0.479c0.008-0.002,0.017-0.003,0.025-0.005l2.991-0.506
		c0.008-0.001,0.015-0.003,0.021-0.004l2.945-0.554c0.008-0.001,0.016-0.003,0.022-0.005l3.135-0.651l3.488-0.71l3.892-0.734
		l4.266-0.791l4.569-0.81l4.587-0.757l4.303-0.624l3.728-0.452l2.94-0.283l2.145-0.157l1.469-0.063l0.961-0.005l0.59,0.03
		l0.408,0.094l0.437,0.189l0.487,0.258l0.489,0.308l0.502,0.374l0.526,0.449l0.554,0.519l0.572,0.555l0.534,0.555l0.467,0.558
		l0.445,0.583l0.407,0.558l0.321,0.58l0.275,0.655l0.258,0.688l0.211,0.717l0.159,0.719l0.102,0.696l0.061,0.67l0.025,0.636
		l0.005,0.618l-0.005,0.605l-0.014,0.595c0,0.004,0,0.007,0,0.01l-0.009,0.595l-0.024,0.597l-0.089,0.538l-0.169,0.476l-0.324,0.479
		l-0.583,0.581l-0.771,0.696l-0.865,0.707l-0.95,0.661l-1.05,0.601l-1.149,0.626l-1.194,0.644l-1.201,0.635l-1.179,0.597
		l-1.179,0.501l-1.298,0.441l-1.331,0.353l-1.471,0.271l-1.638,0.266c-0.009,0.002-0.017,0.003-0.024,0.005l-1.772,0.323
		c-0.006,0.001-0.012,0.002-0.018,0.003l-1.989,0.395c-0.006,0.001-0.012,0.002-0.018,0.004l-2.186,0.469c-0.001,0-0.002,0-0.003,0
		l-2.316,0.503l-2.45,0.451l-2.518,0.349l-2.549,0.24l-2.642,0.147l-2.813,0.069l-2.972,0.023l-3.12-0.005l-3.177-0.019
		l-3.104-0.019l-3.049-0.019l-3.085-0.02c-0.004,0-0.007,0-0.01,0l-3.118,0.005c-0.011,0-0.021,0-0.03,0.001l-3.166,0.084
		c-0.005,0-0.011,0-0.017,0.001l-3.1,0.126c-0.001,0-0.002,0-0.003,0l-2.938,0.127l-2.767,0.103l-2.661,0.075l-2.789,0.046
		l-2.884,0.01l-2.849-0.11l-2.846-0.315l-2.921-0.489l-3.122-0.579c-0.007-0.002-0.015-0.003-0.021-0.004l-3.259-0.544
		c-0.017-0.003-0.033-0.005-0.05-0.008l-3.433-0.427c-0.015-0.002-0.03-0.003-0.045-0.005l-3.531-0.305
		c-0.013-0.001-0.026-0.002-0.039-0.002l-3.423-0.184c-0.01,0-0.019-0.001-0.027-0.001l-3.16-0.099c-0.008,0-0.016,0-0.023,0
		l-2.729-0.033c-0.005,0-0.01,0-0.015,0h-2.241c-0.005,0-0.009,0-0.014,0l-1.744,0.019c-0.003,0-0.005,0-0.008,0l-1.374,0.023
		c-0.001,0-0.003,0.001-0.005,0.001l-1.092,0.023l-0.931,0.018l-0.812,0.015l-0.717,0.009l-0.644,0.005h-0.601h-0.605h-0.703h-0.886
		h-0.999h-1.103c-0.159,0-0.313,0.03-0.459,0.092c-0.147,0.061-0.277,0.147-0.39,0.26c-0.112,0.113-0.199,0.243-0.261,0.39
		c-0.061,0.147-0.091,0.301-0.091,0.46s0.03,0.312,0.091,0.459c0.062,0.147,0.148,0.277,0.261,0.39s0.242,0.199,0.39,0.26
		c0.146,0.062,0.3,0.092,0.459,0.092h1.103h0.999h0.886h0.703h0.605h0.604c0.003,0,0.006,0,0.009,0l0.651-0.005
		c0.003,0,0.005,0,0.008,0l0.722-0.009c0.002,0,0.004,0,0.006,0l0.815-0.015c0.001,0,0.002,0,0.003,0l0.934-0.02
		c0.001,0,0.001,0,0.002,0l1.09-0.022l1.368-0.023l1.734-0.019h2.228l2.711,0.032l3.136,0.098l3.391,0.182l3.489,0.301l3.385,0.421
		l3.225,0.538l3.121,0.579c0.007,0.002,0.015,0.003,0.021,0.004l2.964,0.497c0.021,0.004,0.044,0.007,0.065,0.009l2.922,0.324
		c0.028,0.003,0.057,0.005,0.086,0.006l2.917,0.113c0.017,0,0.033,0.001,0.05,0.001l2.917-0.01c0.006,0,0.011,0,0.017,0l2.804-0.047
		c0.005,0,0.01,0,0.014,0l2.674-0.075c0.003,0,0.007-0.001,0.011-0.001l2.776-0.103c0.002,0,0.004,0,0.007,0l2.938-0.127l3.09-0.126
		l3.143-0.084l3.099-0.005l3.081,0.019l3.048,0.019h0.001l3.104,0.02l3.18,0.019c0.001,0,0.003,0,0.005,0l3.128,0.005
		c0.004,0,0.008,0,0.011,0l2.987-0.023c0.007,0,0.014-0.001,0.021-0.001l2.842-0.07c0.013,0,0.025-0.001,0.038-0.001l2.682-0.15
		c0.016-0.001,0.03-0.002,0.045-0.003l2.599-0.244c0.018-0.002,0.035-0.004,0.053-0.006l2.57-0.356
		c0.018-0.003,0.035-0.006,0.052-0.009l2.495-0.46c0.013-0.002,0.025-0.004,0.037-0.007l2.334-0.507l2.175-0.467l1.971-0.39
		l1.752-0.32l1.639-0.265c0.008-0.002,0.017-0.003,0.025-0.005l1.528-0.281c0.03-0.006,0.061-0.013,0.091-0.021l1.416-0.375
		c0.026-0.007,0.053-0.015,0.079-0.023l1.378-0.469c0.028-0.01,0.057-0.021,0.084-0.032l1.257-0.535
		c0.024-0.01,0.048-0.021,0.071-0.033l1.225-0.619c0.006-0.003,0.013-0.007,0.02-0.01l1.215-0.643
		c0.003-0.002,0.005-0.003,0.008-0.005l1.201-0.646c0.001-0.001,0.003-0.002,0.004-0.003l1.163-0.633
		c0.007-0.004,0.015-0.008,0.021-0.013l1.107-0.633c0.03-0.018,0.061-0.036,0.089-0.057l1.032-0.717
		c0.025-0.019,0.05-0.037,0.074-0.057l0.924-0.755c0.015-0.013,0.03-0.025,0.044-0.038l0.816-0.736
		c0.016-0.014,0.03-0.028,0.045-0.043l0.685-0.685c0.054-0.054,0.102-0.112,0.145-0.175l0.474-0.699
		c0.058-0.084,0.103-0.174,0.137-0.27l0.259-0.722c0.023-0.068,0.042-0.139,0.054-0.211l0.117-0.717
		c0.008-0.048,0.013-0.097,0.015-0.145l0.028-0.685c0-0.011,0.001-0.021,0.001-0.031l0.009-0.604l0.014-0.601
		c0.001-0.006,0.001-0.013,0.001-0.019l0.005-0.624c0-0.006,0-0.012,0-0.018l-0.005-0.647c0-0.014,0-0.027-0.001-0.04l-0.028-0.685
		c-0.001-0.02-0.002-0.039-0.004-0.059l-0.065-0.731c-0.002-0.021-0.005-0.044-0.008-0.065l-0.112-0.773
		c-0.005-0.029-0.01-0.059-0.017-0.088l-0.178-0.802c-0.006-0.026-0.013-0.053-0.021-0.078l-0.234-0.798
		c-0.008-0.027-0.018-0.056-0.027-0.083l-0.281-0.75c-0.006-0.015-0.012-0.029-0.018-0.044l-0.31-0.736
		c-0.017-0.039-0.035-0.078-0.057-0.115l-0.389-0.704c-0.024-0.044-0.052-0.086-0.082-0.127l-0.459-0.629
		c-0.005-0.006-0.01-0.013-0.015-0.02l-0.47-0.614c-0.011-0.015-0.022-0.029-0.034-0.043l-0.511-0.609
		c-0.018-0.021-0.036-0.041-0.055-0.061l-0.576-0.601c-0.011-0.011-0.021-0.021-0.031-0.03l-0.595-0.577
		c-0.006-0.005-0.011-0.009-0.016-0.014l-0.581-0.544c-0.014-0.013-0.027-0.025-0.041-0.037l-0.577-0.492
		c-0.02-0.017-0.04-0.033-0.062-0.049l-0.572-0.427c-0.025-0.02-0.052-0.038-0.079-0.055l-0.567-0.356
		c-0.025-0.016-0.051-0.03-0.077-0.045l-0.567-0.3c-0.027-0.015-0.055-0.027-0.082-0.039l-0.581-0.254
		c-0.069-0.029-0.141-0.053-0.214-0.069l-0.619-0.141c-0.067-0.016-0.135-0.025-0.204-0.029l-0.727-0.037
		c-0.022-0.001-0.045-0.002-0.067-0.001l-1.018,0.004c-0.016,0-0.031,0.001-0.047,0.001l-1.51,0.066
		c-0.012,0-0.023,0.001-0.036,0.002l-2.176,0.159c-0.009,0.001-0.019,0.002-0.027,0.003l-2.969,0.286
		c-0.01,0.001-0.02,0.002-0.029,0.003l-3.756,0.455c-0.01,0.001-0.019,0.002-0.028,0.004l-4.328,0.628
		c-0.008,0.001-0.016,0.002-0.023,0.003l-4.604,0.76c-0.005,0.001-0.01,0.002-0.014,0.003l-4.582,0.812
		c-0.003,0-0.007,0.001-0.01,0.001l-4.272,0.793c-0.001,0-0.002,0-0.004,0.001l-3.901,0.735c-0.006,0.002-0.012,0.003-0.017,0.004
		l-3.499,0.713c-0.001,0.001-0.003,0.001-0.005,0.001l-3.126,0.649l-2.923,0.55l-2.969,0.502l-3.228,0.475l-3.544,0.468
		l-3.776,0.456l-3.948,0.339l-4.015,0.166l-3.97-0.027l-3.774-0.213l-3.519-0.334l-3.304-0.44l-3.048-0.497l-2.73-0.478
		l-2.448-0.435l-2.175-0.413l-2.003-0.425l-1.935-0.482c0,0,0,0-0.001,0l-2.035-0.507c-0.002,0-0.005-0.001-0.008-0.001
		l-2.187-0.528l-2.348-0.604l-2.511-0.724l-2.6-0.792l-2.512-0.81l-2.299-0.788l-2.027-0.707l-1.682-0.636l-1.377-0.525
		c-0.017-0.006-0.033-0.012-0.05-0.018l-1.088-0.361c-0.011-0.003-0.022-0.007-0.033-0.01l-0.783-0.234
		c-0.009-0.003-0.017-0.005-0.024-0.007l-0.525-0.146c-0.012-0.004-0.023-0.007-0.036-0.01l-0.365-0.089
		c-0.154-0.035-0.309-0.04-0.465-0.015c-0.155,0.026-0.301,0.08-0.435,0.163c-0.135,0.083-0.248,0.188-0.341,0.315
		c-0.093,0.128-0.157,0.269-0.195,0.422c-0.037,0.153-0.044,0.308-0.021,0.464c0.024,0.156,0.076,0.302,0.157,0.438
		c0.081,0.135,0.185,0.25,0.312,0.345C381.267,141.337,381.406,141.403,381.56,141.442"/>
</g>
</svg>
