<?xml version="1.0" encoding="utf-8"?>
<!-- Generator: Adobe Illustrator 16.0.0, SVG Export Plug-In . SVG Version: 6.00 Build 0)  -->
<!DOCTYPE svg PUBLIC "-//W3C//DTD SVG 1.1//EN" "http://www.w3.org/Graphics/SVG/1.1/DTD/svg11.dtd">
<svg version="1.1" id="Layer_1" xmlns="http://www.w3.org/2000/svg" xmlns:xlink="http://www.w3.org/1999/xlink" x="0px" y="0px"
	 width="117.939px" height="44.512px" viewBox="0 0 117.939 44.512" enable-background="new 0 0 117.939 44.512"
	 xml:space="preserve">
<g opacity="0.5">
	<g>
		<path d="M35.177,32.675c-2.881,0-5.052-2.722-5.052-6.332v-8.195c0-3.479,2.798-6.31,6.237-6.31c3.464,0,6.285,2.808,6.285,6.261
			c0,0.421-0.101,0.806-0.176,1.089l-0.152,0.6h-5.325v-1.476c0-0.82-0.459-0.82-0.632-0.82c-0.402,0-0.586,0.327-0.586,0.632v3.023
			h6.516v11.197h-2.854l-1.058-1.095C37.78,31.947,36.866,32.675,35.177,32.675z M35.777,26.129c0,0.313,0.285,0.586,0.609,0.586
			c0.382,0,0.609-0.298,0.609-0.799v-0.607h-1.218V26.129z"/>
		<path fill="#FFFFFF" d="M36.364,12.461c3.102,0,5.661,2.535,5.661,5.638c0,0.403-0.119,0.782-0.19,1.065h-4.216v-0.853
			c0-0.662-0.285-1.444-1.255-1.444c-0.734,0-1.209,0.592-1.209,1.255v8.006c0,0.664,0.569,1.21,1.232,1.21s1.232-0.498,1.232-1.423
			v-1.23h-1.255V21.77h5.306v9.95h-1.967l-1.374-1.421c-0.593,0.805-1.327,1.751-3.151,1.751c-2.44,0-4.429-2.298-4.429-5.708
			v-8.194C30.749,15.043,33.26,12.461,36.364,12.461 M36.364,11.214c-3.783,0-6.86,3.11-6.86,6.934v8.195
			c0,3.966,2.44,6.955,5.676,6.955c1.54,0,2.527-0.54,3.201-1.151l0.426,0.441l0.368,0.38h0.528h1.967h1.247V31.72v-9.949v-1.247
			h-1.247h-5.271v-0.111h1.22h4.216h0.974l0.235-0.944l0.032-0.123c0.082-0.314,0.195-0.745,0.195-1.247
			C43.272,14.303,40.172,11.214,36.364,11.214L36.364,11.214z"/>
	</g>
	<g>
		<path d="M50.223,32.675c-3.453,0-6.261-2.809-6.261-6.261v-8.315c0-3.453,2.819-6.261,6.286-6.261
			c3.439,0,6.237,2.808,6.237,6.261v8.314C56.484,29.865,53.675,32.675,50.223,32.675z M50.247,17.491
			c-0.337,0-0.632,0.262-0.632,0.56v8.362c0,0.316,0.268,0.585,0.584,0.585c0.33,0,0.632-0.279,0.632-0.585v-8.362
			C50.831,17.737,50.573,17.491,50.247,17.491z"/>
		<path fill="#FFFFFF" d="M50.247,12.461c3.103,0,5.613,2.535,5.613,5.638v8.314c0,3.104-2.535,5.637-5.637,5.637
			c-3.128,0-5.638-2.532-5.638-5.637v-8.314C44.584,14.996,47.12,12.461,50.247,12.461 M50.199,27.621
			c0.664,0,1.256-0.544,1.256-1.208v-8.362c0-0.663-0.544-1.184-1.208-1.184s-1.256,0.521-1.256,1.184v8.362
			C48.991,27.078,49.534,27.621,50.199,27.621 M50.247,11.214c-3.809,0-6.909,3.089-6.909,6.885v8.314
			c0,3.796,3.088,6.884,6.883,6.884c3.797,0,6.885-3.088,6.885-6.884v-8.314C57.107,14.303,54.029,11.214,50.247,11.214
			L50.247,11.214z"/>
	</g>
	<g>
		<path d="M63.957,32.344V12.145h6.286c3.554,0,6.235,2.56,6.235,5.953c0,2.276-0.521,3.398-1.45,4.185
			c0.929,0.773,1.45,1.892,1.45,4.177c0,3.352-2.682,5.883-6.237,5.883H63.957z M70.217,26.689c0.313,0,0.609-0.307,0.609-0.632
			v-1.089c0-0.325-0.296-0.632-0.609-0.632h-0.607v2.353H70.217z M70.217,20.128c0.313,0,0.609-0.307,0.609-0.632v-1.088
			c0-0.318-0.29-0.608-0.609-0.608h-0.607v2.33h0.607V20.128z"/>
		<path fill="#FFFFFF" d="M70.241,12.768c3.104,0,5.614,2.228,5.614,5.33c0,2.629-0.688,3.457-1.919,4.191
			c1.231,0.711,1.919,1.54,1.919,4.171c0,3.103-2.511,5.259-5.614,5.259h-5.662V12.768H70.241 M68.986,20.752h1.23
			c0.664,0,1.232-0.593,1.232-1.255v-1.088c0-0.664-0.568-1.231-1.232-1.231h-1.23V20.752 M68.986,27.313h1.23
			c0.664,0,1.232-0.593,1.232-1.256v-1.089c0-0.663-0.568-1.255-1.232-1.255h-1.23V27.313 M70.241,11.522h-5.662h-1.247v1.247
			v18.951v1.247h1.247h5.662c3.912,0,6.861-2.797,6.861-6.506c0-1.941-0.342-3.219-1.188-4.181c0.847-0.971,1.188-2.25,1.188-4.182
			C77.102,14.411,74.09,11.522,70.241,11.522L70.241,11.522z"/>
	</g>
	<g>
		<polygon points="84.177,32.344 83.703,27.606 82.933,27.606 82.436,32.344 76.647,32.344 79.753,12.145 86.645,12.145 
			89.951,32.344 		"/>
		<path fill="#FFFFFF" d="M86.114,12.768l3.104,18.951h-4.477l-0.474-4.738h-1.896l-0.496,4.738h-4.501l2.914-18.951H86.114
			 M82.68,24.045h1.279l-0.639-6.23L82.68,24.045 M87.175,11.522h-1.061h-5.826h-1.069l-0.163,1.058l-2.914,18.95l-0.221,1.437
			h1.454h4.501h1.121l0.118-1.118l0.197-1.884l0.188,1.878l0.112,1.123h1.129h4.476h1.468l-0.236-1.449l-3.103-18.95L87.175,11.522
			L87.175,11.522z"/>
	</g>
	<g>
		<path d="M96.587,32.675c-3.439,0-6.237-2.819-6.237-6.285v-8.267c0-3.466,2.798-6.286,6.237-6.286
			c3.465,0,6.284,2.649,6.284,5.906c0,0.628-0.119,1.258-0.319,1.687l-0.169,0.359h-5.165v-1.5c0-0.797-0.412-0.797-0.609-0.797
			c-0.324,0-0.607,0.272-0.607,0.584v8.338c0,0.313,0.283,0.585,0.607,0.585c0.383,0,0.609-0.299,0.609-0.798v-1.5h5.21l0.146,0.416
			c0.204,0.582,0.296,1.093,0.296,1.652C102.871,30.024,100.052,32.675,96.587,32.675z"/>
		<path fill="#FFFFFF" d="M96.587,12.461c3.126,0,5.661,2.369,5.661,5.282c0,0.521-0.096,1.065-0.261,1.422h-4.146v-0.877
			c0-0.663-0.261-1.421-1.232-1.421c-0.662,0-1.23,0.545-1.23,1.208v8.338c0,0.664,0.568,1.208,1.23,1.208
			c0.664,0,1.232-0.495,1.232-1.421v-0.877h4.146c0.165,0.474,0.261,0.925,0.261,1.445c0,2.914-2.535,5.281-5.661,5.281
			c-3.104,0-5.614-2.532-5.614-5.661v-8.267C90.971,14.996,93.482,12.461,96.587,12.461 M96.587,11.214
			c-3.784,0-6.861,3.1-6.861,6.909v8.267c0,3.811,3.077,6.908,6.861,6.908c3.809,0,6.907-2.929,6.907-6.528
			c0-0.624-0.104-1.215-0.332-1.857l-0.291-0.835h-0.884h-4.146h-1.224l0.006-3.664h1.22h4.145h0.793l0.337-0.718
			c0.24-0.514,0.378-1.225,0.378-1.951C103.494,14.143,100.395,11.214,96.587,11.214L96.587,11.214z"/>
	</g>
	<g>
		<polygon points="111.066,32.344 109.838,28.069 109.838,32.344 104.185,32.344 104.185,12.145 109.838,12.145 109.838,16.419 
			111.066,12.145 117.094,12.145 113.987,22.268 117.094,32.344 		"/>
		<path fill="#FFFFFF" d="M116.249,12.768l-2.914,9.5l2.914,9.452h-4.714l-2.322-8.079v8.079h-4.404V12.768h4.405v8.08l2.322-8.08
			H116.249 M117.936,11.522h-1.688h-4.714h-0.938l-0.137,0.471v-0.471h-1.247h-4.404h-1.247v1.247v18.951v1.247h1.247h4.405h1.247
			v-0.472l0.137,0.472h0.938h4.714h1.689l-0.498-1.613l-2.801-9.087l2.802-9.132L117.936,11.522L117.936,11.522z"/>
	</g>
</g>
<g opacity="0.5">
	<path d="M26.98,44.011c-0.566,0-1.122-0.195-1.563-0.552L1.435,24.205C0.841,23.728,0.5,23.017,0.5,22.255
		c0-0.762,0.341-1.473,0.936-1.949L25.417,1.052C25.86,0.695,26.416,0.5,26.981,0.5c0.763,0,1.474,0.341,1.951,0.936
		c0.862,1.075,0.689,2.65-0.386,3.515L6.993,22.255l21.554,17.308c0.521,0.417,0.849,1.014,0.92,1.678
		c0.073,0.664-0.116,1.316-0.535,1.836C28.455,43.67,27.744,44.011,26.98,44.011z"/>
	<path fill="#FFFFFF" d="M26.981,1c0.585,0,1.166,0.256,1.561,0.748c0.691,0.861,0.555,2.12-0.308,2.813L6.194,22.255l22.04,17.696
		c0.861,0.691,0.999,1.951,0.308,2.813c-0.395,0.491-0.976,0.748-1.561,0.748c-0.439,0-0.881-0.145-1.25-0.44L1.748,23.815
		C1.275,23.435,1,22.862,1,22.255c0-0.606,0.275-1.18,0.748-1.56L25.73,1.44C26.1,1.144,26.542,1,26.981,1 M26.981,0L26.981,0
		c-0.681,0-1.347,0.234-1.877,0.661L1.122,19.916C0.409,20.488,0,21.34,0,22.255c0,0.914,0.409,1.768,1.122,2.34L25.104,43.85
		c0.53,0.426,1.196,0.661,1.876,0.661c0.916,0,1.769-0.409,2.341-1.122c0.501-0.625,0.729-1.407,0.643-2.204
		c-0.087-0.796-0.479-1.513-1.104-2.014L7.792,22.255L28.86,5.339c1.29-1.035,1.497-2.927,0.461-4.217
		C28.75,0.409,27.896,0,26.981,0L26.981,0z"/>
</g>
</svg>
