<?xml version="1.0" encoding="utf-8"?>
<!-- Generator: Adobe Illustrator 16.0.0, SVG Export Plug-In . SVG Version: 6.00 Build 0)  -->
<!DOCTYPE svg PUBLIC "-//W3C//DTD SVG 1.1//EN" "http://www.w3.org/Graphics/SVG/1.1/DTD/svg11.dtd">
<svg version="1.1" id="Layer_1" xmlns="http://www.w3.org/2000/svg" xmlns:xlink="http://www.w3.org/1999/xlink" x="0px" y="0px"
	 width="117.939px" height="44.511px" viewBox="0 0 117.939 44.511" enable-background="new 0 0 117.939 44.511"
	 xml:space="preserve">
<g opacity="0.5">
	<g>
		<path d="M44.028,19.211c-2.31,0-4.052-2.183-4.052-5.078V7.56c0-2.79,2.244-5.06,5.002-5.06c2.779,0,5.04,2.252,5.04,5.021
			c0,0.338-0.081,0.647-0.14,0.873l-0.122,0.482h-4.271V7.692c0-0.658-0.368-0.658-0.507-0.658c-0.322,0-0.469,0.263-0.469,0.507
			v2.425h5.225v8.979h-2.289l-0.849-0.878C46.115,18.628,45.383,19.211,44.028,19.211z M44.509,13.962
			c0,0.25,0.228,0.469,0.488,0.469c0.306,0,0.488-0.239,0.488-0.64v-0.488h-0.976V13.962z"/>
		<path fill="#FFFFFF" d="M44.979,3c2.488,0,4.54,2.033,4.54,4.521c0,0.323-0.095,0.627-0.152,0.855h-3.381V7.692
			c0-0.531-0.228-1.158-1.007-1.158c-0.589,0-0.969,0.475-0.969,1.007v6.421c0,0.532,0.456,0.969,0.988,0.969
			c0.532,0,0.988-0.399,0.988-1.14v-0.988h-1.007v-2.337h4.255v7.979h-1.577l-1.102-1.14c-0.475,0.646-1.064,1.405-2.527,1.405
			c-1.957,0-3.552-1.843-3.552-4.578V7.56C40.476,5.071,42.49,3,44.979,3 M44.979,2c-3.034,0-5.502,2.494-5.502,5.56v6.573
			c0,3.18,1.957,5.578,4.552,5.578c1.235,0,2.026-0.434,2.567-0.924l0.342,0.354l0.295,0.305h0.424h1.577h1v-1v-7.979v-1h-1h-4.227
			l0-0.089h0.978h3.381h0.781l0.189-0.757l0.025-0.099c0.066-0.252,0.156-0.597,0.156-1C50.519,4.477,48.033,2,44.979,2L44.979,2z"
			/>
	</g>
	<g>
		<path d="M56.094,19.211c-2.769,0-5.021-2.252-5.021-5.021V7.521c0-2.769,2.261-5.021,5.041-5.021c2.758,0,5.002,2.252,5.002,5.021
			v6.668C61.115,16.958,58.862,19.211,56.094,19.211z M56.113,7.034c-0.27,0-0.507,0.21-0.507,0.449v6.706
			c0,0.254,0.215,0.469,0.469,0.469c0.265,0,0.507-0.224,0.507-0.469V7.483C56.582,7.231,56.375,7.034,56.113,7.034z"/>
		<path fill="#FFFFFF" d="M56.113,3c2.488,0,4.502,2.033,4.502,4.521v6.668c0,2.489-2.033,4.521-4.521,4.521
			c-2.508,0-4.521-2.032-4.521-4.521V7.521C51.572,5.033,53.605,3,56.113,3 M56.075,15.158c0.532,0,1.007-0.437,1.007-0.969V7.483
			c0-0.531-0.437-0.949-0.969-0.949c-0.532,0-1.007,0.418-1.007,0.949v6.706C55.106,14.722,55.542,15.158,56.075,15.158 M56.113,2
			c-3.055,0-5.541,2.477-5.541,5.521v6.668c0,3.044,2.477,5.521,5.521,5.521s5.521-2.477,5.521-5.521V7.521
			C61.615,4.477,59.146,2,56.113,2L56.113,2z"/>
	</g>
	<g>
		<path d="M67.108,18.945V2.747h5.041C75,2.747,77.15,4.8,77.15,7.521c0,1.825-0.418,2.726-1.163,3.357
			c0.745,0.62,1.163,1.517,1.163,3.349c0,2.689-2.15,4.718-5.002,4.718H67.108z M72.129,14.411c0.25,0,0.488-0.246,0.488-0.507
			v-0.873c0-0.261-0.237-0.507-0.488-0.507h-0.488v1.887H72.129z M72.129,9.149c0.25,0,0.488-0.246,0.488-0.507V7.769
			c0-0.255-0.232-0.487-0.488-0.487h-0.488v1.868H72.129z"/>
		<path fill="#FFFFFF" d="M72.148,3.247c2.488,0,4.502,1.786,4.502,4.274c0,2.109-0.551,2.773-1.539,3.362
			c0.988,0.57,1.539,1.235,1.539,3.344c0,2.489-2.014,4.218-4.502,4.218h-4.541V3.247H72.148 M71.141,9.649h0.988
			c0.532,0,0.988-0.475,0.988-1.007V7.769c0-0.532-0.456-0.987-0.988-0.987h-0.988V9.649 M71.141,14.911h0.988
			c0.532,0,0.988-0.475,0.988-1.007v-0.873c0-0.532-0.456-1.007-0.988-1.007h-0.988V14.911 M72.148,2.247h-4.541h-1v1v15.198v1h1
			h4.541c3.137,0,5.502-2.243,5.502-5.218c0-1.556-0.273-2.581-0.953-3.352c0.68-0.779,0.953-1.805,0.953-3.354
			C77.65,4.564,75.234,2.247,72.148,2.247L72.148,2.247z"/>
	</g>
	<g>
		<polygon points="83.324,18.945 82.944,15.146 82.327,15.146 81.928,18.945 77.286,18.945 79.776,2.747 85.303,2.747 
			87.955,18.945 		"/>
		<path fill="#FFFFFF" d="M84.878,3.247l2.489,15.198h-3.59l-0.38-3.8h-1.52l-0.399,3.8h-3.609l2.337-15.198H84.878 M82.124,12.29
			h1.026l-0.513-4.996L82.124,12.29 M85.728,2.247h-0.85h-4.673h-0.858l-0.13,0.848L76.88,18.293l-0.177,1.152h1.166h3.609h0.9
			l0.094-0.896l0.159-1.511l0.15,1.506l0.09,0.9h0.905h3.59h1.177l-0.19-1.162L85.865,3.085L85.728,2.247L85.728,2.247z"/>
	</g>
	<g>
		<path d="M93.276,19.211c-2.758,0-5.002-2.261-5.002-5.04v-6.63c0-2.78,2.244-5.041,5.002-5.041c2.779,0,5.04,2.125,5.04,4.736
			c0,0.504-0.096,1.009-0.256,1.353l-0.135,0.288h-4.143V7.674c0-0.64-0.33-0.64-0.488-0.64c-0.26,0-0.488,0.219-0.488,0.469v6.687
			c0,0.25,0.228,0.469,0.488,0.469c0.306,0,0.488-0.239,0.488-0.64v-1.203h4.179l0.117,0.334c0.164,0.467,0.237,0.876,0.237,1.325
			C98.316,17.086,96.055,19.211,93.276,19.211z"/>
		<path fill="#FFFFFF" d="M93.276,3c2.507,0,4.54,1.9,4.54,4.236c0,0.418-0.076,0.855-0.209,1.141h-3.324V7.674
			c0-0.532-0.209-1.14-0.988-1.14c-0.532,0-0.988,0.437-0.988,0.969v6.687c0,0.532,0.456,0.969,0.988,0.969
			c0.532,0,0.988-0.398,0.988-1.14v-0.703h3.324c0.133,0.38,0.209,0.741,0.209,1.159c0,2.337-2.033,4.236-4.54,4.236
			c-2.489,0-4.502-2.032-4.502-4.54v-6.63C88.773,5.033,90.787,3,93.276,3 M93.276,2c-3.034,0-5.502,2.486-5.502,5.541v6.63
			c0,3.055,2.468,5.54,5.502,5.54c3.055,0,5.54-2.349,5.54-5.236c0-0.501-0.084-0.974-0.266-1.49l-0.234-0.669h-0.709h-3.324h-0.981
			l0.004-2.938h0.978h3.324h0.636l0.27-0.577c0.193-0.412,0.303-0.982,0.303-1.564C98.816,4.349,96.331,2,93.276,2L93.276,2z"/>
	</g>
	<g>
		<polygon points="104.888,18.945 103.903,15.517 103.903,18.945 99.37,18.945 99.37,2.747 103.903,2.747 103.903,6.175 
			104.888,2.747 109.722,2.747 107.231,10.865 109.723,18.945 		"/>
		<path fill="#FFFFFF" d="M109.045,3.247l-2.337,7.618l2.337,7.58h-3.781l-1.862-6.479v6.479H99.87V3.247h3.533v6.479l1.862-6.479
			H109.045 M110.398,2.247h-1.353h-3.781h-0.753l-0.109,0.378V2.247h-1H99.87h-1v1v15.198v1h1h3.533h1v-0.378l0.109,0.378h0.753
			h3.781h1.354l-0.399-1.294l-2.246-7.287l2.247-7.324L110.398,2.247L110.398,2.247z"/>
	</g>
	<g>
		<polygon points="34.229,41.745 34.229,30.081 31.246,30.081 31.246,25.547 41.783,25.547 41.783,30.081 38.781,30.081 
			38.781,41.745 		"/>
		<path fill="#FFFFFF" d="M41.283,26.047v3.534h-3.001v11.664h-3.553V29.581h-2.982v-3.534H41.283 M42.283,25.047h-1h-9.537h-1v1
			v3.534v1h1h1.982v10.664v1h1h3.553h1v-1V30.581h2.001h1v-1v-3.534V25.047L42.283,25.047z"/>
	</g>
	<g>
		<path d="M47.25,42.011c-2.769,0-5.021-2.252-5.021-5.021v-6.668c0-2.769,2.261-5.021,5.041-5.021c2.758,0,5.002,2.252,5.002,5.021
			v6.668C52.271,39.758,50.018,42.011,47.25,42.011z M47.269,29.834c-0.27,0-0.507,0.21-0.507,0.449v6.706
			c0,0.254,0.215,0.469,0.469,0.469c0.265,0,0.507-0.224,0.507-0.469v-6.706C47.737,30.031,47.531,29.834,47.269,29.834z"/>
		<path fill="#FFFFFF" d="M47.269,25.8c2.488,0,4.502,2.033,4.502,4.521v6.668c0,2.489-2.033,4.521-4.521,4.521
			c-2.508,0-4.521-2.032-4.521-4.521v-6.668C42.728,27.833,44.761,25.8,47.269,25.8 M47.23,37.958c0.532,0,1.007-0.437,1.007-0.969
			v-6.706c0-0.531-0.437-0.949-0.969-0.949c-0.532,0-1.007,0.418-1.007,0.949v6.706C46.261,37.521,46.698,37.958,47.23,37.958
			 M47.269,24.8c-3.055,0-5.541,2.477-5.541,5.521v6.668c0,3.044,2.477,5.521,5.521,5.521s5.521-2.477,5.521-5.521v-6.668
			C52.771,27.277,50.302,24.8,47.269,24.8L47.269,24.8z"/>
	</g>
	<g>
		<path d="M63.285,42.011c-2.816,0-5.021-2.18-5.021-4.964c0-0.183,0.041-0.474,0.081-0.741l0.094-0.69h3.731l-0.207-0.105
			c-0.614-0.324-3.7-2.119-3.7-5.416c0-2.263,2.107-4.794,4.926-4.794c2.816,0,5.021,2.198,5.021,5.003
			c0,0.216-0.053,0.549-0.112,0.9l-0.07,0.417l-0.433,0.057h-3.47c0.103,0.053,0.472,0.234,0.472,0.234l0.212,0.111
			c1.134,0.591,3.496,1.822,3.496,5.233C68.306,39.5,66.159,42.011,63.285,42.011z M62.797,36.876c0,0.523,0.341,0.602,0.544,0.602
			c0.017,0,0.412-0.005,0.412-0.412c0-0.442-0.491-0.833-0.957-1.114V36.876z M63.247,29.834c-0.044,0-0.431,0.012-0.431,0.431
			c0,0.521,0.483,0.928,0.957,1.215v-1.006C63.773,30.002,63.501,29.834,63.247,29.834z"/>
		<path fill="#FFFFFF" d="M63.19,25.8c2.508,0,4.521,1.976,4.521,4.503c0,0.209-0.076,0.646-0.114,0.874h-3.324v-0.703
			c0-0.76-0.513-1.14-1.026-1.14c-0.437,0-0.931,0.304-0.931,0.931c0,1.216,1.577,1.843,2.052,2.09
			c0.988,0.531,3.438,1.576,3.438,4.901c0,1.88-1.843,4.255-4.521,4.255c-2.489,0-4.521-1.938-4.521-4.464
			c0-0.229,0.076-0.646,0.114-0.932h3.42v0.761c0,0.76,0.513,1.102,1.044,1.102c0.38,0,0.912-0.267,0.912-0.912
			c0-1.102-1.596-1.748-2.052-1.995c-1.007-0.531-3.438-2.185-3.438-4.977C58.764,28.213,60.53,25.8,63.19,25.8 M63.19,24.8
			c-3.198,0-5.426,2.79-5.426,5.294c0,2.431,1.472,4.079,2.681,5.021h-1.567H58l-0.114,0.869l-0.036,0.247
			c-0.042,0.284-0.086,0.577-0.086,0.816c0,3.064,2.425,5.464,5.521,5.464c3.16,0,5.521-2.774,5.521-5.255
			c0-2.803-1.502-4.273-2.724-5.079h1.515h0.847l0.139-0.835l0.009-0.056c0.063-0.372,0.119-0.728,0.119-0.982
			C68.711,27.217,66.286,24.8,63.19,24.8L63.19,24.8z"/>
	</g>
	<g>
		<polygon points="69.36,41.745 69.36,25.547 79.08,25.547 79.08,30.081 73.893,30.081 73.893,31.36 77.427,31.36 77.427,34.735 
			73.893,34.735 73.893,37.211 79.08,37.211 79.08,41.745 		"/>
		<path fill="#FFFFFF" d="M78.58,26.047v3.534h-5.187v2.279h3.534v2.375h-3.534v3.476h5.187v3.534h-8.72V26.047H78.58 M79.58,25.047
			h-1h-8.72h-1v1v15.198v1h1h8.72h1v-1v-3.534v-1h-1h-4.187v-1.476h2.534h1v-1V31.86v-1h-1h-2.534v-0.279h4.187h1v-1v-3.534V25.047
			L79.58,25.047z"/>
	</g>
	<g>
		<path d="M85.514,41.745l-0.848-2.573v2.573h-4.533V25.547h5.021c2.769,0,5.021,2.261,5.021,5.041v0.969
			c0,1.461-0.765,2.93-1.938,3.779l2.11,6.409H85.514z M84.945,33.26c0.472,0,0.697-0.121,0.697-0.811v-1.577
			c0-0.665-0.245-0.791-0.697-0.791h-0.279v3.179H84.945z"/>
		<path fill="#FFFFFF" d="M85.154,26.047c2.488,0,4.521,2.052,4.521,4.541v0.969c0,1.5-0.893,2.906-2.033,3.571l2.014,6.117h-3.78
			l-1.71-5.187v5.187h-3.533V26.047H85.154 M84.166,33.76h0.779c0.741,0,1.197-0.342,1.197-1.311v-1.577
			c0-0.931-0.456-1.291-1.197-1.291h-0.779V33.76 M85.154,25.047h-4.521h-1v1v15.198v1h1h3.533h1h0.71h3.78h1.382l-0.432-1.313
			l-1.784-5.421c1.132-0.963,1.854-2.463,1.854-3.955v-0.969C90.675,27.533,88.198,25.047,85.154,25.047L85.154,25.047z"/>
	</g>
	<g>
		<rect x="91.229" y="25.547" width="4.534" height="16.198"/>
		<path fill="#FFFFFF" d="M95.262,26.047v15.198h-3.534V26.047H95.262 M96.262,25.047h-1h-3.534h-1v1v15.198v1h1h3.534h1v-1V26.047
			V25.047L96.262,25.047z"/>
	</g>
	<g>
		<polygon points="96.814,41.745 96.814,25.547 106.534,25.547 106.534,30.081 101.348,30.081 101.348,31.36 104.881,31.36 
			104.881,34.735 101.348,34.735 101.348,37.211 106.534,37.211 106.534,41.745 		"/>
		<path fill="#FFFFFF" d="M106.034,26.047v3.534h-5.186v2.279h3.533v2.375h-3.533v3.476h5.186v3.534h-8.72V26.047H106.034
			 M107.034,25.047h-1h-8.72h-1v1v15.198v1h1h8.72h1v-1v-3.534v-1h-1h-4.186v-1.476h2.533h1v-1V31.86v-1h-1h-2.533v-0.279h4.186h1
			v-1v-3.534V25.047L107.034,25.047z"/>
	</g>
	<g>
		<path d="M112.418,42.011c-2.816,0-5.021-2.18-5.021-4.964c0-0.183,0.041-0.474,0.081-0.742l0.094-0.69h3.731l-0.207-0.105
			c-0.614-0.324-3.7-2.119-3.7-5.416c0-2.263,2.107-4.794,4.926-4.794c2.816,0,5.021,2.198,5.021,5.003
			c0,0.216-0.053,0.549-0.112,0.9l-0.07,0.417l-0.433,0.057h-3.47c0.103,0.053,0.472,0.234,0.472,0.234l0.212,0.111
			c1.134,0.591,3.496,1.822,3.496,5.233C117.439,39.5,115.292,42.011,112.418,42.011z M111.93,36.876
			c0,0.523,0.341,0.602,0.545,0.602c0.017,0,0.412-0.005,0.412-0.412c0-0.442-0.491-0.833-0.957-1.114V36.876z M112.38,29.834
			c-0.044,0-0.431,0.012-0.431,0.431c0,0.521,0.483,0.928,0.957,1.215v-1.006C112.906,30.002,112.635,29.834,112.38,29.834z"/>
		<path fill="#FFFFFF" d="M112.323,25.8c2.508,0,4.521,1.976,4.521,4.503c0,0.209-0.076,0.646-0.114,0.874h-3.324v-0.703
			c0-0.76-0.513-1.14-1.026-1.14c-0.437,0-0.931,0.304-0.931,0.931c0,1.216,1.577,1.843,2.052,2.09
			c0.988,0.531,3.438,1.576,3.438,4.901c0,1.88-1.843,4.255-4.521,4.255c-2.489,0-4.521-1.938-4.521-4.464
			c0-0.229,0.076-0.646,0.114-0.932h3.419v0.761c0,0.76,0.513,1.102,1.045,1.102c0.38,0,0.912-0.267,0.912-0.912
			c0-1.102-1.596-1.748-2.052-1.995c-1.007-0.531-3.438-2.185-3.438-4.977C107.897,28.213,109.664,25.8,112.323,25.8 M112.323,24.8
			c-3.198,0-5.426,2.79-5.426,5.294c0,2.431,1.472,4.079,2.681,5.021h-1.567h-0.877l-0.114,0.869l-0.036,0.247
			c-0.042,0.284-0.086,0.577-0.086,0.816c0,3.064,2.425,5.464,5.521,5.464c3.16,0,5.521-2.774,5.521-5.255
			c0-2.803-1.502-4.273-2.724-5.079h1.515h0.847l0.139-0.835l0.009-0.056c0.063-0.372,0.119-0.728,0.119-0.982
			C117.845,27.217,115.419,24.8,112.323,24.8L112.323,24.8z"/>
	</g>
</g>
<g opacity="0.5">
	<path d="M26.98,44.011c-0.566,0-1.122-0.195-1.563-0.551L1.435,24.205C0.841,23.728,0.5,23.017,0.5,22.255
		c0-0.762,0.341-1.473,0.935-1.95L25.417,1.051C25.86,0.695,26.416,0.5,26.981,0.5c0.763,0,1.474,0.341,1.951,0.935
		c0.863,1.075,0.69,2.651-0.385,3.515L6.993,22.255l21.554,17.307c0.521,0.417,0.848,1.014,0.92,1.678
		c0.073,0.664-0.117,1.316-0.536,1.836C28.455,43.67,27.744,44.011,26.98,44.011z"/>
	<path fill="#FFFFFF" d="M26.981,1c0.585,0,1.166,0.256,1.561,0.748c0.691,0.861,0.554,2.12-0.308,2.812L6.194,22.255l22.04,17.696
		c0.861,0.691,0.999,1.951,0.308,2.812c-0.395,0.492-0.976,0.748-1.561,0.748c-0.439,0-0.881-0.144-1.25-0.44L1.748,23.815
		C1.275,23.435,1,22.862,1,22.255s0.275-1.18,0.748-1.56L25.73,1.44C26.1,1.144,26.542,1,26.981,1 M26.981,0L26.981,0
		c-0.68,0-1.346,0.234-1.877,0.661L1.122,19.916C0.409,20.488,0,21.34,0,22.255c0,0.914,0.409,1.767,1.122,2.339l23.982,19.256
		c0.531,0.426,1.197,0.661,1.876,0.661c0.916,0,1.769-0.409,2.341-1.122c0.501-0.625,0.73-1.407,0.643-2.204
		c-0.087-0.796-0.479-1.512-1.104-2.013L7.792,22.255L28.86,5.339c1.29-1.036,1.497-2.927,0.461-4.217
		C28.75,0.409,27.896,0,26.981,0L26.981,0z"/>
</g>
</svg>
