<?xml version="1.0" encoding="utf-8"?>
<!-- Generator: Adobe Illustrator 16.0.0, SVG Export Plug-In . SVG Version: 6.00 Build 0)  -->
<!DOCTYPE svg PUBLIC "-//W3C//DTD SVG 1.1//EN" "http://www.w3.org/Graphics/SVG/1.1/DTD/svg11.dtd">
<svg version="1.1" id="Layer_1" xmlns="http://www.w3.org/2000/svg" xmlns:xlink="http://www.w3.org/1999/xlink" x="0px" y="0px"
	 width="311.7402344px" height="319.328125px" viewBox="0 0 311.7402344 319.328125"
	 enable-background="new 0 0 311.7402344 319.328125" xml:space="preserve">
<path fill="none" stroke="#7F7F7F" stroke-width="31" stroke-miterlimit="10" d="M0,303.828125
	c32.2036133,0,74.5761719-94.9140625,74.5761719-167.7958984s25.4248047-81.3564453,81.3564453-81.3564453"/>
<path fill="none" stroke="#7F7F7F" stroke-width="31" stroke-miterlimit="10" d="M311.7402344,303.828125
	c-32.203125,0-74.5761719-94.9140625-74.5761719-167.7958984s-25.4248047-81.3564453-81.3564453-81.3564453"/>
<path fill="#FFFFFF" stroke="#7F7F7F" stroke-width="31" stroke-miterlimit="10" d="M174.7236328,53.9570313
	c6.6665039,0.3330078,33.3334961-40.9990234,44-38.3330078s0.1821289,52.3339844,5.4243164,59"/>
<path fill="#FFFFFF" stroke="#7F7F7F" stroke-width="31" stroke-miterlimit="10" d="M137.2241211,53.9570313
	c-6.7114258,0.3330078-33.5581055-40.9990234-44.2963867-38.3330078s-0.1835938,52.3339844-5.4609375,59"/>
<path fill="none" stroke="#7F7F7F" stroke-width="31" stroke-miterlimit="10" d="M96.7451172,215.4560547
	c27.25,0,20-59.25,59.25-59.25"/>
<path fill="none" stroke="#7F7F7F" stroke-width="31" stroke-miterlimit="10" d="M215.2451172,215.4560547
	c-27.25,0-20-59.25-59.25-59.25"/>
<circle fill="#7F7F7F" cx="127.949707" cy="112.4560547" r="15.5"/>
<circle fill="#7F7F7F" cx="184.0400391" cy="112.4560547" r="15.5"/>
</svg>
