<?xml version="1.0" encoding="utf-8"?>
<!-- Generator: Adobe Illustrator 16.0.0, SVG Export Plug-In . SVG Version: 6.00 Build 0)  -->
<!DOCTYPE svg PUBLIC "-//W3C//DTD SVG 1.1//EN" "http://www.w3.org/Graphics/SVG/1.1/DTD/svg11.dtd">
<svg version="1.1" id="Layer_1" xmlns="http://www.w3.org/2000/svg" xmlns:xlink="http://www.w3.org/1999/xlink" x="0px" y="0px"
	 width="311.7402344px" height="319.3603516px" viewBox="0 0 311.7402344 319.3603516"
	 enable-background="new 0 0 311.7402344 319.3603516" xml:space="preserve">
<path fill="#000000" d="M311.7402344,288.3603516v31c-29.7998047,0-52.5898438-41.2099609-63.5205078-65.7705078
	C231.5898438,216.25,221.6601563,172.3105469,221.6601563,136.0600586c0-39.6298828-8.0898438-51.0200195-14.1796875-56.1499023
	c-9.5703125-8.0498047-27.5507813-9.699707-51.6103516-9.699707c-24.0600586,0-42.0400391,1.6499023-51.6103516,9.699707
	c-6.0898438,5.1298828-14.1796875,16.5200195-14.1796875,56.1499023c0,36.2504883-9.9301758,80.1899414-26.5600586,117.5297852
	C52.5898438,278.1503906,29.7998047,319.3603516,0,319.3603516v-31c4.4199219,0,19.4301758-11.9296875,35.2001953-47.3701172
	c14.949707-33.5800781,23.8798828-72.8095703,23.8798828-104.9301758c0-30.7998047,4.4897461-52.409668,14.2900391-67.4599609
	c0.449707-2.8598633-0.0302734-11.6196289-0.3500977-17.4697266c-0.4599609-8.3701172-0.9301758-17.0302734-0.4399414-24.4799805
	c0.9897461-14.7900391,6.5800781-23.550293,16.6098633-26.0400391c15.3398438-3.8100586,28.2099609,10.7900391,43.1098633,27.699707
	c3.2099609,3.6401367,7.840332,8.9003906,10.25,11.1103516c4.2402344-0.1499023,8.6601563-0.2099609,13.2602539-0.2099609h0.1201172
	c4.6499023,0,9.1196289,0.0600586,13.409668,0.2099609c2.4003906-2.2099609,7-7.4399414,10.1699219-11.0703125
	c14.8203125-16.9399414,27.6201172-31.5698242,42.9707031-27.7299805c10.0097656,2.5,15.5693359,11.2602539,16.5595703,26.0400391
	c0.4902344,7.4399414,0.0195313,16.090332-0.4404297,24.4599609c-0.2998047,5.6899414-0.7597656,14.1201172-0.3896484,17.2402344
	c9.9199219,15.0600586,14.4501953,36.7397461,14.4501953,67.699707c0,32.1206055,8.9296875,71.3500977,23.8798828,104.9301758
	C292.3095703,276.4306641,307.3203125,288.3603516,311.7402344,288.3603516z M109.0390625,48.8051758
	c-1.5063477-1.7094727-3.3974609-3.8549805-5.409668-6.0771484c0.1103516,2.4716797,0.237793,4.8017578,0.3422852,6.7045898
	c0.390625,7.140625,0.7094727,13.0869141,0.5317383,18.1455078l15.7998047-6.5625
	C116.9624023,57.7861328,113.3500977,53.6972656,109.0390625,48.8051758z M207.6503906,49.4384766
	c0.1005859-1.8505859,0.2226563-4.1044922,0.3300781-6.4995117c-1.9140625,2.1328125-3.7080078,4.1821289-5.1484375,5.8271484
	c-4.3056641,4.9194336-7.9111328,9.0297852-11.2480469,12.2709961l15.5371094,6.4970703
	C206.9472656,62.4882813,207.2636719,56.5576172,207.6503906,49.4384766z"/>
<path fill="#000000" d="M215.2451172,230.9863281c-22.5966797,0-31.28125-20.2148438-37.6220703-34.9755859
	c-7.9521484-18.5107422-11.9726563-24.2744141-21.6279297-24.2744141c-9.6547852,0-13.675293,5.7636719-21.6279297,24.2744141
	c-6.3413086,14.7607422-15.0258789,34.9755859-37.6220703,34.9755859v-31c0.2109375,0,0.2993164-0.0195313,0.300293-0.0205078
	c2.3989258-1.2001953,6.5883789-10.9521484,8.8388672-16.1914063c7.362793-17.1386719,18.4897461-43.0380859,50.1108398-43.0380859
	s42.7480469,25.8994141,50.1103516,43.0380859c2.2460938,5.2275391,6.4228516,14.9492188,8.8798828,16.2041016
	c-0.0009766-0.0068359,0.0966797,0.0078125,0.2597656,0.0078125V230.9863281z"/>
<circle fill="#000000" cx="127.949707" cy="112.4863281" r="15.5"/>
<circle fill="#000000" cx="184.0400391" cy="112.4863281" r="15.5"/>
</svg>
