<?xml version="1.0" encoding="utf-8"?>
<!-- Generator: Adobe Illustrator 16.0.0, SVG Export Plug-In . SVG Version: 6.00 Build 0)  -->
<!DOCTYPE svg PUBLIC "-//W3C//DTD SVG 1.1//EN" "http://www.w3.org/Graphics/SVG/1.1/DTD/svg11.dtd">
<svg version="1.1" id="Layer_1" xmlns="http://www.w3.org/2000/svg" xmlns:xlink="http://www.w3.org/1999/xlink" x="0px" y="0px"
	 width="938.07px" height="384.371px" viewBox="0 0 938.07 384.371" enable-background="new 0 0 938.07 384.371"
	 xml:space="preserve">
<path fill="#7F7F7F" d="M898.02,331.5c-0.02,0.16-0.069,0.311-0.159,0.451c-0.08,0.129-0.181,0.25-0.311,0.34
	c-0.13,0.1-0.271,0.16-0.42,0.199l-1.431,0.359c-0.069,0.011-0.13,0.029-0.199,0.029l-4.431,0.351c-0.021,0-0.04,0-0.061,0.011
	l-9.92,0.279c-0.011,0-0.011,0-0.021,0l-18.641,0.199L832.65,333.9l-19.57,0.17l-22.54,0.34l-25.25,0.649l-27.729,1.11l-14.72,0.789
	l-15.25,0.94l-15.74,1.108l-16.189,1.271l-16.601,1.43l-16.949,1.58l-34.739,3.59l-35.421,4.11l-35.529,4.489l-35.04,4.73
	l-34.101,4.77l-63.63,8.91h-0.01l-28.3,3.721c0,0,0,0-0.01,0l-23.28,2.859c-0.01,0-0.021,0-0.021,0l-16.569,1.811
	c0,0-0.011,0-0.021,0l-12.42,1.069h-0.03l-11.31,0.67c-0.01,0-0.021,0.011-0.03,0.011l-10.84,0.34h-0.03l-10.2-0.01h-0.029
	l-8.62-0.24h-0.04l-6.34-0.369c-0.021,0-0.03,0-0.051-0.01l-4.97-0.5h-0.06l-4.87-0.711c-0.021-0.011-0.04-0.011-0.061-0.011
	l-5.909-1.181c-0.021,0-0.04,0-0.051-0.01l-7.5-1.811h-0.029l-7.391-2.029c-0.02,0-0.04-0.011-0.06-0.021l-5.641-1.809
	c-0.02-0.011-0.039-0.021-0.06-0.031l-4.479-1.739c-0.011-0.011-0.03-0.021-0.051-0.021l-4.26-1.9c-0.01-0.01-0.03-0.02-0.04-0.02
	l-4.24-2.101c-0.01-0.011-0.029-0.011-0.04-0.021l-4.21-2.289c-0.01-0.011-0.029-0.021-0.04-0.031l-4.18-2.479
	c-0.01-0.011-0.03-0.021-0.04-0.029l-4.31-2.82c-0.021-0.01-0.04-0.02-0.05-0.04l-5.32-3.87c-0.01-0.01-0.03-0.02-0.04-0.029
	l-7.021-5.58c-0.02-0.01-0.029-0.021-0.04-0.029l-8.06-6.92c-0.01-0.01-0.02-0.01-0.03-0.021l-4.13-3.8
	c-0.01-0.011-0.02-0.011-0.02-0.021l-4.141-3.979c-0.01-0.011-0.02-0.021-0.029-0.029l-8.301-8.489
	c-0.01-0.011-0.02-0.021-0.029-0.031l-8.33-9.18c-0.01-0.01-0.021-0.021-0.03-0.029l-8.38-9.83c-0.01,0-0.021-0.01-0.021-0.02
	l-8.449-10.461c0-0.011-0.011-0.021-0.011-0.029l-8.479-11.021c-0.01-0.01-0.01-0.01-0.021-0.02l-8.46-11.5
	c-0.01-0.01-0.01-0.01-0.02-0.021l-8.45-11.908c0,0,0-0.012-0.01-0.012l-8.4-12.27c-0.01,0-0.01-0.01-0.01-0.01l-8.31-12.521
	c0-0.01-0.011-0.01-0.011-0.01l-8.16-12.68c-0.01-0.012-0.01-0.012-0.01-0.021l-7.96-12.74c0,0,0-0.01-0.01-0.01l-7.7-12.721
	c-0.01-0.01-0.01-0.01-0.01-0.021l-7.43-12.62c-0.011,0-0.011-0.01-0.011-0.01l-7.37-12.91c0-0.01-0.01-0.01-0.01-0.02l-8.439-15.37
	c0-0.01-0.011-0.02-0.011-0.02l-10.3-19.45c-0.01-0.01-0.01-0.01-0.01-0.02l-10.75-20.97c0-0.01,0-0.02-0.01-0.02l-9.53-19.5
	c-0.01-0.01-0.01-0.01-0.01-0.02L22.64,84.1c0,0-0.011-0.01-0.011-0.02l-6.6-14.92c0,0-0.01-0.01-0.01-0.02L10.75,56.56
	c0-0.01,0-0.02-0.01-0.03L6.7,46.21c-0.01-0.01-0.01-0.02-0.02-0.04l-2.94-8.25c-0.01-0.01-0.02-0.03-0.02-0.04l-1.98-6.37
	c-0.01-0.02-0.01-0.04-0.02-0.06l-1.15-4.47c-0.01-0.03-0.01-0.06-0.021-0.09L0.06,24.18C0.05,24.12,0.05,24.06,0.05,24L0,22.39
	c0-0.07,0-0.14,0.01-0.21l0.181-1.19c0.01-0.09,0.04-0.18,0.069-0.26l0.36-0.93c0.04-0.11,0.09-0.2,0.16-0.29l0.54-0.72
	c0.07-0.09,0.16-0.17,0.25-0.24l0.7-0.51c0.09-0.06,0.189-0.11,0.29-0.15l0.88-0.32c0.1-0.04,0.21-0.06,0.31-0.07l1.32-0.11h0.18
	l1.95,0.12c0.03,0.01,0.07,0.01,0.1,0.021l2.4,0.36c0.03,0,0.06,0.01,0.09,0.01l2.57,0.59c0.02,0.01,0.04,0.01,0.06,0.02l2.57,0.74
	c0.16,0.05,0.29,0.12,0.42,0.22c0.12,0.1,0.22,0.22,0.3,0.35c0.08,0.14,0.12,0.29,0.141,0.45c0.02,0.16,0.01,0.31-0.04,0.47
	c-0.04,0.15-0.11,0.29-0.21,0.41c-0.101,0.13-0.221,0.23-0.36,0.31c-0.14,0.07-0.29,0.12-0.45,0.14c-0.149,0.02-0.31,0-0.46-0.04
	l-2.54-0.73L9.3,20.25L7,19.91L5.18,19.79l-1.07,0.09l-0.57,0.21l-0.41,0.3L2.8,20.82l-0.26,0.65L2.4,22.43l0.04,1.41l0.47,2.58
	l1.13,4.41L6,37.14l2.94,8.21l4.03,10.29l5.26,12.56l6.59,14.9l8.03,17.26l9.52,19.47l10.74,20.96l10.3,19.44l8.43,15.36l7.36,12.89
	l7.42,12.609l7.7,12.711l7.95,12.73l8.149,12.658l8.301,12.5l8.399,12.25l8.44,11.891l8.45,11.49l8.46,11l8.42,10.439l8.359,9.8
	l8.311,9.149l8.27,8.461l4.12,3.959l4.11,3.781l8.029,6.889l6.98,5.541l5.28,3.85l4.26,2.79l4.14,2.46l4.17,2.271l4.19,2.07
	l4.21,1.879l4.42,1.721l5.58,1.8l7.35,2.021l7.45,1.801l5.851,1.16l4.819,0.699l4.931,0.489l6.29,0.37l8.59,0.24l10.16,0.01
	l10.8-0.34l11.27-0.68l12.391-1.062l16.54-1.8l23.279-2.86l28.28-3.72l63.63-8.899l34.101-4.78h0.01l35.051-4.729h0.01l35.54-4.5
	h0.011l35.439-4.108h0.01l34.75-3.591c0.011,0,0.011,0,0.011,0l16.96-1.579h0.01l16.61-1.432c0,0,0,0,0.01,0l16.2-1.27l15.75-1.11
	c0.01,0,0.01,0,0.01,0l15.261-0.95c0.01,0,0.01,0,0.021,0l14.729-0.779h0.01l27.75-1.119c0.011,0,0.011,0,0.021,0l25.271-0.65h0.011
	l22.55-0.34h0.01l19.57-0.17l29.779-0.18l18.621-0.201l9.879-0.279l4.301-0.34l1.33-0.34c0.16-0.041,0.31-0.041,0.47-0.021
	c0.16,0.021,0.3,0.08,0.44,0.16c0.14,0.08,0.25,0.18,0.35,0.311c0.09,0.131,0.16,0.27,0.2,0.43
	C898.04,331.189,898.04,331.35,898.02,331.5z"/>
<path fill="#7F7F7F" d="M938.07,271.39c0,0.16-0.03,0.32-0.09,0.46c-0.062,0.149-0.15,0.28-0.261,0.392
	c-0.109,0.119-0.239,0.198-0.391,0.26c-0.14,0.06-0.3,0.09-0.46,0.09h-69.3c0,0,0,0-0.011,0l-21.859-0.16h-0.03l-12.529-0.381
	c-0.01,0-0.01,0-0.021,0l-13.58-0.639c0,0-0.01,0-0.021,0l-14.55-0.932c-0.011,0-0.021,0-0.021,0l-15.521-1.238c0,0-0.011,0-0.021,0
	l-16.45-1.591c-0.01,0-0.02,0-0.02,0l-17.392-1.979c-0.01,0-0.01,0-0.02-0.01l-18.28-2.392c-0.01,0-0.02,0-0.02,0l-19.04-2.8
	c-0.012,0-0.012,0-0.021,0l-19.649-3.16h-0.011l-20.14-3.479c0,0,0,0-0.01,0l-20.49-3.74c-0.01,0-0.01,0-0.01,0l-20.73-3.939
	l-41.609-8.221l-41.181-8.319c0-0.011,0-0.011-0.01-0.011l-39.75-8.279l-37.53-7.811l-35.2-7.229l-32.88-6.871
	c0-0.01-0.01-0.01-0.01-0.01l-15.61-3.4c-0.01,0-0.01,0-0.01,0l-15.06-3.419h-0.01l-14.49-3.45h-0.01l-14.03-3.52h-0.01l-13.67-3.62
	h-0.011l-13.359-3.73c0-0.01-0.011-0.01-0.011-0.01l-13.06-3.88h-0.01l-12.771-4.01h-0.01l-12.471-4.11
	c-0.01-0.01-0.01-0.01-0.02-0.01l-12.2-4.2h-0.01l-11.95-4.28c0,0-0.01,0-0.01-0.01l-11.67-4.32c-0.01-0.01-0.01-0.01-0.021-0.01
	l-22.449-8.74c0,0-0.011,0-0.011-0.01l-21.34-8.63c-0.01,0-0.01,0-0.01,0l-20.32-8.33c0-0.01,0-0.01-0.01-0.01l-18.91-8.02
	c-0.01-0.01-0.01-0.01-0.02-0.01l-17.13-7.69c-0.011,0-0.021-0.01-0.03-0.01l-15.16-7.31c-0.01,0-0.02,0-0.03-0.01l-13.25-6.78
	c-0.01-0.01-0.02-0.01-0.029-0.02l-11.561-6.33c-0.01,0-0.02-0.01-0.03-0.01l-5.239-3.04c-0.011,0-0.011-0.01-0.021-0.01
	l-4.899-2.97c-0.011-0.01-0.021-0.02-0.03-0.02l-4.54-2.93c-0.01-0.01-0.021-0.02-0.03-0.02l-4.21-2.89
	c-0.01-0.01-0.02-0.02-0.03-0.03l-3.869-2.87c-0.021-0.01-0.03-0.02-0.04-0.04l-3.561-2.87c-0.01-0.02-0.02-0.03-0.04-0.04
	l-3.27-2.91c-0.011-0.01-0.03-0.02-0.04-0.03l-3-2.91c-0.011-0.01-0.021-0.03-0.04-0.04L72.63,65c-0.02-0.01-0.029-0.03-0.05-0.04
	l-2.42-2.87c-0.02-0.02-0.03-0.04-0.05-0.05l-2.16-2.86c-0.01-0.02-0.02-0.03-0.04-0.05l-1.9-2.84c-0.01-0.01-0.02-0.03-0.029-0.05
	L64.3,53.46c-0.01-0.02-0.02-0.04-0.029-0.05l-1.46-2.73c-0.011-0.01-0.021-0.03-0.021-0.05L61.53,48c0-0.02-0.01-0.04-0.02-0.06
	l-1.051-2.53c-0.01-0.02-0.02-0.04-0.02-0.06l-0.86-2.44c-0.01-0.02-0.01-0.04-0.02-0.06l-0.67-2.32
	c-0.011-0.03-0.021-0.061-0.021-0.09L58,36.15c-0.01-0.04-0.02-0.07-0.02-0.11l-0.4-3.99c-0.01-0.03-0.01-0.06-0.01-0.09l-0.09-3.92
	V28l0.04-3.93l-0.03-3.95l-0.22-3.71l-0.42-3.38l-0.471-2.87L55.94,7.88l-0.47-1.8l-0.53-1.33L54.42,3.7L54.02,2.9l-0.33-0.44
	l-0.42-0.33c-0.12-0.1-0.221-0.22-0.3-0.36c-0.08-0.13-0.12-0.28-0.141-0.44c-0.02-0.15-0.01-0.31,0.04-0.46
	c0.04-0.15,0.11-0.29,0.21-0.41c0.101-0.13,0.21-0.23,0.351-0.31c0.14-0.08,0.279-0.13,0.439-0.14C54.03-0.01,54.18,0,54.33,0.04
	c0.16,0.04,0.3,0.11,0.42,0.2l0.54,0.43c0.09,0.07,0.16,0.14,0.23,0.23L56,1.55c0.04,0.05,0.07,0.11,0.101,0.16l0.46,0.9
	c0.01,0,0.01,0.01,0.01,0.02l0.55,1.1c0.01,0.03,0.021,0.06,0.04,0.09l0.57,1.44c0.02,0.05,0.03,0.1,0.04,0.14l0.5,1.91
	c0.01,0.02,0.01,0.05,0.02,0.07l0.45,2.34c0,0.01,0.01,0.021,0.01,0.03l0.48,2.91v0.05l0.43,3.44v0.08l0.23,3.78v0.06l0.029,3.99
	c0,0.01,0,0.02,0,0.02L59.88,28l0.091,3.86l0.39,3.87l0.85,4.18l0.65,2.24l0.83,2.37L63.72,47l1.22,2.57l1.43,2.68l1.65,2.73
	l1.87,2.78l2.12,2.8l2.39,2.82l2.67,2.85l2.95,2.87l3.24,2.87l3.51,2.84l3.83,2.85l4.17,2.87l4.52,2.91l4.88,2.96l5.21,3.02
	l11.53,6.32l13.23,6.77l15.14,7.29l17.1,7.67l18.891,8.021l20.31,8.32l21.33,8.64l22.43,8.73L261,155.5l11.931,4.27l12.18,4.2
	l12.46,4.11l12.75,3.99l13.03,3.88l13.34,3.72l13.64,3.61l14.021,3.52l14.47,3.44l15.04,3.41l15.61,3.41l32.87,6.87l35.199,7.229
	l37.53,7.811l39.75,8.279l41.17,8.33l41.601,8.211l20.71,3.938l20.489,3.739l20.12,3.471l19.63,3.16l19.03,2.79l18.26,2.392
	l17.37,1.979l16.431,1.59l15.5,1.24l14.54,0.92l13.55,0.65l12.511,0.369l21.85,0.159h69.29c0.16,0,0.32,0.03,0.46,0.101
	c0.15,0.061,0.28,0.141,0.391,0.26c0.109,0.111,0.199,0.24,0.261,0.381C938.04,271.08,938.07,271.24,938.07,271.39z"/>
<path fill="#7F7F7F" d="M20.4,37.79c0,0.16-0.03,0.32-0.09,0.46c-0.061,0.15-0.15,0.28-0.261,0.39c-0.109,0.12-0.239,0.2-0.39,0.26
	c-0.14,0.06-0.3,0.09-0.46,0.09s-0.31-0.03-0.46-0.09c-0.14-0.06-0.27-0.14-0.39-0.26c-0.11-0.11-0.19-0.24-0.261-0.39
	c-0.06-0.14-0.09-0.3-0.09-0.46c0-0.15,0.03-0.31,0.09-0.45c0.07-0.15,0.15-0.28,0.261-0.39c0.12-0.12,0.25-0.2,0.39-0.26
	c0.15-0.07,0.3-0.1,0.46-0.1s0.32,0.03,0.46,0.1c0.15,0.06,0.28,0.14,0.39,0.26c0.11,0.11,0.2,0.24,0.261,0.39
	C20.37,37.48,20.4,37.64,20.4,37.79z"/>
<path fill="#7F7F7F" d="M47.39,29.8c-0.051,0.15-0.131,0.29-0.24,0.41c-0.101,0.12-0.22,0.22-0.37,0.29
	c-0.14,0.07-0.29,0.11-0.45,0.12c-0.16,0.01-0.31-0.01-0.46-0.06c-0.149-0.05-0.29-0.12-0.41-0.23l-0.06-0.05l-0.01-0.01
	c-0.15-0.07-0.271-0.16-0.37-0.28c-0.11-0.12-0.19-0.26-0.24-0.41s-0.07-0.31-0.05-0.46c0.01-0.16,0.05-0.31,0.12-0.46
	c0.069-0.14,0.17-0.26,0.29-0.37c0.119-0.1,0.25-0.18,0.399-0.23c0.15-0.05,0.311-0.07,0.471-0.06c0.159,0.01,0.31,0.06,0.449,0.13
	l0.15,0.07c0.09,0.05,0.17,0.1,0.25,0.17l0.17,0.15c0.12,0.1,0.22,0.23,0.29,0.37s0.11,0.29,0.12,0.45
	C47.46,29.5,47.44,29.65,47.39,29.8z"/>
<path fill="#7F7F7F" d="M56.52,61.13c0,0.16-0.03,0.31-0.09,0.46c-0.061,0.15-0.15,0.28-0.261,0.39c-0.12,0.11-0.25,0.2-0.39,0.26
	c-0.15,0.06-0.3,0.09-0.46,0.09s-0.31-0.03-0.46-0.09c-0.15-0.06-0.28-0.15-0.39-0.26c-0.11-0.11-0.2-0.24-0.261-0.39l-0.26-0.63
	l-0.01-0.01l-0.29-0.72c0-0.02-0.01-0.03-0.01-0.04l-0.28-0.77l-0.28-0.77l-0.29-0.76c-0.01,0-0.01,0-0.01-0.01l-0.29-0.76
	l-0.27-0.64l-0.29-0.57l-0.301-0.57c-0.02-0.02-0.029-0.04-0.04-0.07l-0.27-0.6l-0.26-0.59l-0.28-0.57c0,0,0,0,0-0.01l-0.28-0.57
	L50.22,52.4l-0.311-0.54l-0.29-0.5l-0.28-0.38l-0.26-0.28l-0.35-0.26l-0.47-0.28L47.7,49.87l-0.57-0.3l-0.51-0.21l-0.439-0.13
	L45.8,49.18l-0.47-0.01h-0.52l-0.5,0.02L43.8,49.24l-0.51,0.06l-0.49,0.09l-0.529,0.12l-0.57,0.13c-0.01,0-0.01,0.01-0.02,0.01
	l-0.54,0.12l-0.54,0.15L40.05,50.1l-0.51,0.22l-0.51,0.28l-0.55,0.38l-0.61,0.46l-0.62,0.51l-0.67,0.58l-0.66,0.65l-0.62,0.7
	l-0.569,0.75l-0.53,0.81l-0.5,0.82l-0.45,0.87l-0.43,0.9l-0.39,0.91l-0.4,0.93l-0.35,1l-0.37,1.07c0,0.01-0.011,0.01-0.011,0.02
	l-0.39,1.08l-0.36,1.03l-0.31,1c0,0,0,0.01-0.01,0.01l-0.32,1.01l-0.28,0.95l-0.26,0.83c0,0.01,0,0.02-0.01,0.03l-0.23,0.7
	c0,0.02-0.01,0.03-0.01,0.05l-0.229,0.58l-0.17,0.48c0,0.01-0.011,0.01-0.011,0.02l-0.149,0.39c-0.011,0.04-0.03,0.07-0.05,0.11
	l-0.16,0.32c-0.011,0.03-0.03,0.05-0.04,0.07l-0.15,0.25c-0.01,0.01-0.01,0.02-0.02,0.03l-0.101,0.17
	c-0.09,0.13-0.189,0.24-0.319,0.33c-0.131,0.08-0.271,0.15-0.431,0.18c-0.149,0.03-0.31,0.04-0.46,0.01
	c-0.16-0.03-0.3-0.08-0.43-0.17c-0.14-0.08-0.25-0.19-0.34-0.31c-0.09-0.13-0.15-0.27-0.19-0.43c-0.04-0.15-0.04-0.3-0.02-0.46
	c0.02-0.15,0.08-0.3,0.16-0.43l0.09-0.15l0.12-0.21l0.119-0.23l0.131-0.33l0.17-0.47c0-0.01,0.01-0.01,0.01-0.01l0.21-0.57
	l0.22-0.66l0.25-0.82l0.29-0.96c0,0,0-0.01,0-0.02l0.33-1l0.311-1.02c0-0.01,0.01-0.03,0.01-0.04l0.37-1.06
	c0.01,0,0.01-0.01,0.01-0.01l0.39-1.09l0.38-1.06v-0.01l0.36-1.03c0.01-0.02,0.02-0.04,0.03-0.06l0.41-0.97c0-0.01,0-0.01,0-0.02
	l0.399-0.93c0.01-0.01,0.021-0.02,0.021-0.04l0.449-0.94c0-0.01,0.011-0.02,0.011-0.03l0.479-0.93c0.021-0.03,0.03-0.05,0.05-0.08
	l0.53-0.87c0.01-0.01,0.021-0.03,0.021-0.04l0.569-0.86c0.011-0.02,0.03-0.04,0.04-0.06l0.62-0.81c0.021-0.03,0.04-0.05,0.061-0.07
	l0.68-0.77c0.02-0.03,0.04-0.05,0.06-0.07l0.721-0.7c0.02-0.02,0.029-0.03,0.05-0.04l0.71-0.62c0-0.01,0.01-0.02,0.02-0.03
	l0.66-0.54c0.01-0.01,0.03-0.02,0.04-0.03l0.65-0.48l0.029-0.03l0.62-0.43c0.04-0.02,0.07-0.04,0.11-0.06l0.62-0.35
	c0.04-0.02,0.08-0.04,0.12-0.05l0.609-0.26c0.021-0.01,0.04-0.02,0.07-0.02l0.62-0.22c0.02,0,0.04-0.01,0.06-0.02l0.61-0.16
	c0.02-0.01,0.04-0.02,0.06-0.02l0.57-0.13l0.57-0.13h0.01l0.56-0.13c0.021,0,0.04-0.01,0.051-0.01l0.55-0.1c0.02,0,0.04,0,0.07-0.01
	l0.56-0.07h0.05l0.55-0.05h0.051l0.54-0.03h0.64l0.56,0.01c0.051,0,0.101,0,0.15,0.01l0.54,0.08c0.06,0.01,0.11,0.02,0.17,0.04
	l0.57,0.16c0.05,0.02,0.09,0.03,0.13,0.05l0.62,0.26c0.02,0.01,0.05,0.02,0.08,0.04l0.619,0.31c0.011,0.01,0.021,0.01,0.021,0.01
	l0.59,0.32c0.021,0.01,0.04,0.02,0.061,0.03l0.54,0.32c0.02,0.02,0.05,0.04,0.079,0.06l0.49,0.35c0.061,0.04,0.12,0.09,0.17,0.15
	l0.4,0.42c0.03,0.04,0.07,0.08,0.1,0.13l0.351,0.49c0.02,0.021,0.029,0.05,0.05,0.08l0.33,0.54c0,0.01,0.01,0.02,0.01,0.02
	l0.33,0.58c0.01,0.01,0.01,0.02,0.02,0.04l0.301,0.57c0,0.01,0.01,0.02,0.01,0.03l0.29,0.58l0.29,0.59c0,0.01,0.01,0.03,0.02,0.04
	l0.271,0.61c0,0,0,0,0,0.01l0.25,0.56l0.279,0.54l0.32,0.61c0.021,0.03,0.03,0.06,0.05,0.09l0.29,0.71c0,0.01,0.011,0.02,0.011,0.03
	l0.3,0.78l0.31,0.77c0,0.01,0,0.02,0.01,0.03l0.28,0.78l0.271,0.75l0.279,0.7l0.261,0.62C56.49,60.82,56.52,60.97,56.52,61.13z"/>
</svg>
