<?xml version="1.0" encoding="utf-8"?>
<!-- Generator: Adobe Illustrator 16.0.0, SVG Export Plug-In . SVG Version: 6.00 Build 0)  -->
<!DOCTYPE svg PUBLIC "-//W3C//DTD SVG 1.1//EN" "http://www.w3.org/Graphics/SVG/1.1/DTD/svg11.dtd">
<svg version="1.1" id="Layer_1" xmlns="http://www.w3.org/2000/svg" xmlns:xlink="http://www.w3.org/1999/xlink" x="0px" y="0px"
	 width="160.2670898px" height="90.9443359px" viewBox="0 0 160.2670898 90.9443359"
	 enable-background="new 0 0 160.2670898 90.9443359" xml:space="preserve">
<g>
	<g>
		<path fill="#231F20" d="M109.6206055,29.9199219c-12.8076172-12.6538086-32.7480469-17.9453125-50.3291016-17.847168
			c-17.8222656,0.0991211-36.5483398,7.5444336-48.7841797,20.6655273
			C3.7265625,40.0092773-6.1420898,54.659668,5.1079102,62.4135742c7.2124023,4.9711914,18.456543,3.6108398,26.4956055,2.2373047
			c10.8911133-1.8608398,21.324707-5.8037109,32.4995117-5.7133789c-0.8330078-0.8334961-1.6669922-1.6665039-2.5-2.5
			c0.0234375,1.8168945-7.3447266,4.2836914-8.7226563,4.8398438c-5.0654297,2.0444336-10.2392578,3.8061523-15.2788086,5.9160156
			c-5.652832,2.3666992-17.1108398,7.4248047-11.1557617,15.0908203c1.800293,2.3173828,5.4047852,3.0126953,8.0668945,3.6308594
			c4.7319336,1.0966797,9.4008789,2.2402344,14.206543,2.9960938c10.5214844,1.6533203,21.1835938,2.4394531,31.8203125,1.8261719
			c7.7861328-0.4482422,15.4492188-1.3886719,23.2392578-1.7177734c4.5800781-0.1933594,11.4638672-0.5371094,13.2353516-5.6669922
			c1.0546875-3.0566406-3.7763672-4.3583984-4.8222656-1.3300781c-1.03125,2.9892578-11.7744141,2.1015625-14.2675781,2.1113281
			c-8.2539063,0.0351563-16.4755859,1.7597656-24.7753906,1.8681641c-9.4482422,0.125-19.1494141-1.0859375-28.4189453-2.8291016
			c-1.4121094-0.265625-16.152832-2.8925781-14.949707-5.4179688c1.2680664-2.6625977,5.7001953-4.1865234,8.1655273-5.3046875
			c4.4960938-2.0390625,9.1982422-3.6323242,13.8076172-5.3916016c4.3730469-1.6694336,14.9277344-4.4516602,14.8496094-10.6210938
			c-0.0175781-1.3710938-1.1240234-2.4887695-2.5-2.5c-17.078125-0.1376953-33.4873047,9.3632813-50.5976563,6.2011719
			c-7.6362305-1.4111328-10.1391602-5.8295898-7.065918-12.8183594c2.1611328-4.9140625,5.7402344-9.2685547,9.5170898-13.0263672
			C27.625,22.6860352,44.7368164,17.1533203,60.8950195,17.0634766
			c15.6132813-0.0869141,33.8857422,5.2226563,45.1904297,16.3916016
			C108.3803711,35.7226563,111.9174805,32.1884766,109.6206055,29.9199219L109.6206055,29.9199219z"/>
	</g>
</g>
<g>
	<g>
		<path fill="#231F20" d="M30.3530273,37.9375c0.2094727-3.7841797,8.6523438-2.8823242,10.2617188-0.6572266
			c1.609375,2.2265625-4.0932617,3.1054688-5.3999023,3.3911133c-5.8037109,1.2700195-13.144043,1.7998047-18.9472656,0.8554688
			c-3.1533203-0.5131836-4.5053711,4.3046875-1.3291016,4.8212891c5.0976563,0.8295898,10.5170898,0.4848633,15.628418,0.012207
			c4.4370117-0.4106445,11.9638672-0.9511719,14.6035156-5.284668C51.3706055,30.8984375,26.0844727,24.7246094,25.3530273,37.9375
			C25.1748047,41.1606445,30.1757813,41.1435547,30.3530273,37.9375L30.3530273,37.9375z"/>
	</g>
</g>
<g>
	<g>
		<path fill="#231F20" d="M94.5913086,40.7788086c-3.2724609,1.4091797-11.5292969,3.387207-8.9980469,8.7578125
			c1.3339844,2.8295898,3.9697266,3.9375,6.9082031,4.4472656c1.6523438,0.2866211,3.3398438,0.3305664,4.9970703,0.5898438
			c2.3603516,0.3686523,1.9628906,0.3847656,2.4433594,2.5283203c0.5498047,2.449707-0.3046875,4.8671875,1.5947266,6.8168945
			c1.7294922,1.7734375,5.0917969,1.7094727,7.3417969,1.7397461c4.2207031,0.0566406,7.8916016,0.0029297,12.1308594,0.8481445
			c5.421875,1.0805664,10.7285156,2.6357422,16.1787109,3.5913086c3.1533203,0.5527344,4.5019531-4.265625,1.3300781-4.8212891
			c-7.4794922-1.3110352-14.7646484-3.7827148-22.3232422-4.6323242c-2.4589844-0.2763672-4.8466797-0.0288086-7.3164063,0.0141602
			c-3.6210938,0.0629883-3.6513672-0.1499023-3.9189453-3.5200195c-0.3242188-4.097168-1.9169922-6.3251953-6.1318359-7.3867188
			c-1.0195313-0.2568359-8.7167969-1.5673828-8.6689453-1.6264648c1.2939453-1.5981445,5.0595703-2.2124023,6.9560547-3.0292969
			C100.0688477,43.8242188,97.519043,39.5180664,94.5913086,40.7788086L94.5913086,40.7788086z"/>
	</g>
</g>
<g>
	<g>
		<path fill="#231F20" d="M94.7680664,17.3481445c4.7597656-1.4384766,8.1494141-5.3691406,11.71875-8.6152344
			c2.3623047-2.1479492,5.9345703-5.222168,9.0361328-2.4145508c2.7177734,2.4594727,4.7949219,5.9799805,7.3378906,8.6621094
			c9.3173828,9.8300781,21.5722656,15.4506836,34.3271484,19.3676758c3.0908203,0.9492188,4.4023438-3.8779297,1.3300781-4.8212891
			c-15.5244141-4.7670898-28.2324219-12.237793-38.2099609-25.25c-9.4541016-12.3300781-18.296875,5.6591797-26.8701172,8.25
			C90.3608398,13.4570313,91.6733398,18.2832031,94.7680664,17.3481445L94.7680664,17.3481445z"/>
	</g>
</g>
</svg>
